<?xml version="1.0" encoding="UTF-8" standalone="no"?>
<!-- Created with Inkscape (http://www.inkscape.org/) -->

<svg
   xmlns:dc="http://purl.org/dc/elements/1.1/"
   xmlns:cc="http://creativecommons.org/ns#"
   xmlns:rdf="http://www.w3.org/1999/02/22-rdf-syntax-ns#"
   xmlns:svg="http://www.w3.org/2000/svg"
   xmlns="http://www.w3.org/2000/svg"
   xmlns:sodipodi="http://sodipodi.sourceforge.net/DTD/sodipodi-0.dtd"
   xmlns:inkscape="http://www.inkscape.org/namespaces/inkscape"
   width="744.09448819"
   height="1052.3622047"
   id="svg4081"
   version="1.1"
   inkscape:version="0.48.4 r9939"
   sodipodi:docname="ant_logo_2.svg">
  <defs
     id="defs4083" />
  <sodipodi:namedview
     id="base"
     pagecolor="#ffffff"
     bordercolor="#666666"
     borderopacity="1.0"
     inkscape:pageopacity="0.0"
     inkscape:pageshadow="2"
     inkscape:zoom="0.175"
     inkscape:cx="-141.76041"
     inkscape:cy="1061.7277"
     inkscape:document-units="px"
     inkscape:current-layer="layer1"
     showgrid="false"
     inkscape:window-width="1366"
     inkscape:window-height="719"
     inkscape:window-x="0"
     inkscape:window-y="25"
     inkscape:window-maximized="1" />
  <metadata
     id="metadata4086">
    <rdf:RDF>
      <cc:Work
         rdf:about="">
        <dc:format>image/svg+xml</dc:format>
        <dc:type
           rdf:resource="http://purl.org/dc/dcmitype/StillImage" />
        <dc:title></dc:title>
      </cc:Work>
    </rdf:RDF>
  </metadata>
  <g
     inkscape:label="Layer 1"
     inkscape:groupmode="layer"
     id="layer1">
    <text
       xml:space="preserve"
       style="font-size:404.46493529999997918px;font-style:normal;font-weight:normal;line-height:125%;letter-spacing:0px;word-spacing:0px;fill:#004a80;fill-opacity:1;stroke:none;font-family:Sans"
       x="-1107.8976"
       y="-8.6906996"
       id="text3035-4-6-1"
       sodipodi:linespacing="125%"><tspan
         sodipodi:role="line"
         id="tspan3037-0-0-4"
         x="-1107.8976"
         y="-8.6906996"
         style="font-style:normal;font-variant:normal;font-weight:normal;font-stretch:normal;fill:#004a80;font-family:Ubuntu;-inkscape-font-specification:Ubuntu;fill-opacity:1">інструмент  ўдзелу</tspan></text>
    <path
       sodipodi:type="arc"
       style="fill:#ff6600;fill-opacity:1"
       id="path3761"
       sodipodi:cx="-1426.3354"
       sodipodi:cy="438.18942"
       sodipodi:rx="189.90868"
       sodipodi:ry="189.90868"
       d="m -1236.4268,438.18942 a 189.90868,189.90868 0 1 1 -379.8173,0 189.90868,189.90868 0 1 1 379.8173,0 z"
       transform="matrix(1.1223404,0,0,1.1223404,216.76757,-606.12111)" />
    <path
       style="fill:#004a80;fill-opacity:1;stroke:none"
       d="m -1363.0454,-316.84946 c -36.5162,0 -70.5727,10.52145 -99.3109,28.694 1.3937,1.05671 2.7692,2.07059 4.2086,3.06538 5.3807,3.71854 17.8633,11.6119 22.6261,14.30931 0.815,0.46156 4.0044,3.35649 7.0981,6.43228 l 5.6283,5.59056 1.8844,-0.28895 c 6.1505,-0.96095 7.8976,-1.10016 13.9701,-1.10555 6.0514,-0.005 9.0695,0.21791 14.95,1.11811 l 1.9096,0.30151 7.9525,-7.91472 c 4.6967,-4.6726 8.331,-8.04437 8.8946,-8.24135 0.5247,-0.18344 1.7073,-0.62994 2.6256,-0.99248 0.9185,-0.36258 2.36,-0.93281 3.2036,-1.25631 2.8144,-1.07897 10.3411,-5.54764 14.0455,-8.34186 2.0135,-1.51878 5.0951,-4.24249 6.8469,-6.05539 2.9694,-3.07322 3.4635,-3.78025 7.2614,-10.45246 2.2403,-3.93595 4.2054,-7.37597 4.3594,-7.63833 0.154,-0.26239 1.0625,-1.84719 2.0226,-3.51765 0.2619,-0.45553 0.4802,-0.82581 0.6784,-1.1558 -10.0363,-1.67498 -20.3429,-2.5503 -30.8548,-2.5503 z m 35.4404,3.3669 c -2.4617,5.15552 -6.1708,12.5552 -8.053,15.9425 -1.215,2.18666 -2.3686,4.26076 -2.5628,4.61064 -2.3636,4.25813 -6.7174,9.3846 -7.9775,9.3846 -0.6033,0 -1.4195,0.42312 -5.2388,2.71362 -1.4869,0.89179 -4.4969,2.68258 -6.6836,3.96992 -3.7371,2.2002 -9.1123,5.39228 -10.1761,6.04282 -0.2624,0.16049 -1.2615,0.73756 -2.2236,1.294 -1.554,0.89871 -13.376,11.82003 -13.3545,12.33691 0.01,0.19783 1.8183,1.57687 5.9046,4.49757 1.1014,0.78723 2.7652,2.01444 3.6935,2.72618 0.9283,0.71169 3.3414,2.52453 5.3645,4.03273 l 3.6809,2.73875 1.1307,2.6508 c 3.7134,8.62456 4.6688,16.02944 3.2413,25.22659 -0.2716,1.7493 -0.5547,3.60841 -0.6282,4.13325 -0.073,0.52475 -0.3613,1.7389 -0.6407,2.70105 -0.2795,0.96211 -0.5638,2.01759 -0.6281,2.34929 -0.5052,2.60628 -2.1869,4.98699 -6.96,9.87455 -3.2404,3.31814 -6.854,6.15686 -9.6232,7.53783 -2.0266,1.01063 -2.337,1.07138 -5.176,1.03017 -1.6619,-0.0241 -4.5189,-0.34985 -6.3444,-0.71609 -1.8255,-0.36616 -3.3886,-0.59384 -3.4674,-0.51509 -0.2011,0.20113 0.6295,1.38988 1.8719,2.70106 1.5683,1.6551 4.9251,6.38399 6.0303,8.49262 0.5331,1.01714 0.9842,2.27676 1.005,2.80155 0.059,1.49105 -0.6133,10.3525 -1.1558,15.23898 -0.2701,2.43321 -0.4338,4.47839 -0.3643,4.54782 0.069,0.0695 0.9965,-1.05956 2.0603,-2.51261 1.0638,-1.45309 2.1347,-2.86584 2.3745,-3.1282 0.2397,-0.26239 1.0313,-1.32482 1.7588,-2.37441 0.7275,-1.04959 1.6417,-2.34083 2.0352,-2.86438 0.994,-1.32239 5.7059,-7.78894 6.382,-8.75644 0.3056,-0.43735 1.3991,-1.92974 2.4373,-3.32921 1.0381,-1.39946 2.4694,-3.37119 3.1784,-4.37194 1.2191,-1.72071 2.0347,-2.40446 6.9976,-5.82925 1.1371,-0.78466 2.755,-1.91143 3.5931,-2.51261 1.7306,-1.24139 1.8137,-1.23483 4.4724,0.55278 1.5483,1.04102 1.9325,1.17588 2.2614,0.81659 0.2175,-0.23775 1.8276,-2.00797 3.5804,-3.93223 1.7528,-1.92426 3.6675,-4.00076 4.2589,-4.6232 0.5915,-0.62236 2.4148,-2.64817 4.0453,-4.49757 1.9359,-2.19582 3.369,-3.52569 4.1332,-3.84429 2.1287,-0.88733 7.9137,-3.09051 8.1157,-3.09051 0.1093,0 1.0242,-0.38013 2.0353,-0.84172 3.336,-1.52301 7.8846,-5.39634 10.7037,-9.10821 0.9935,-1.30805 3.2699,-5.85965 3.5427,-7.08556 0.2085,-0.93646 1.0612,-3.69727 2.0604,-6.65841 0.2951,-0.87463 0.8609,-2.6705 1.2563,-3.98249 0.3953,-1.31198 0.9744,-3.17113 1.2814,-4.13324 0.3069,-0.96211 0.8845,-2.82126 1.2815,-4.13324 0.3969,-1.31199 0.8944,-2.9561 1.1181,-3.65585 1.1013,-3.44537 3.4533,-11.01765 4.7865,-15.42742 1.4359,-4.74967 1.5467,-4.98923 3.1156,-6.58303 l 1.6332,-1.65832 1.5327,0.6784 c 1.4495,0.63418 1.5322,0.73187 1.3568,1.65832 -0.3633,1.91867 -0.4443,2.27747 -0.9799,4.32169 -0.2979,1.13707 -0.5859,2.35122 -0.6282,2.70105 -0.042,0.34988 -0.298,1.42488 -0.5779,2.38698 -0.2798,0.96211 -0.5869,2.17626 -0.6784,2.70106 -0.091,0.52479 -0.3714,1.81479 -0.6281,2.86437 -0.2567,1.04959 -0.7737,3.18698 -1.1432,4.7614 -0.3696,1.57434 -0.9537,3.94441 -1.3066,5.26391 -0.3528,1.31954 -0.6923,2.74865 -0.7412,3.17845 -0.049,0.4298 -0.3155,1.59302 -0.6031,2.57543 -0.2875,0.98241 -0.5872,2.2724 -0.6658,2.86437 -0.2689,2.02613 -1.4726,5.32291 -3.4171,9.39716 -1.0697,2.24129 -2.7657,5.79046 -3.7689,7.88959 -1.0031,2.09917 -2.1479,4.56901 -2.5378,5.47749 -0.6026,1.40416 -1.072,1.89728 -3.1407,3.31664 -1.3385,0.91829 -2.5005,1.7603 -2.588,1.8719 -0.087,0.11151 -1.2923,0.9741 -2.676,1.92214 -1.3837,0.94804 -3.4578,2.39896 -4.6106,3.21614 -1.1528,0.81718 -2.8862,2.02681 -3.8443,2.68849 -0.9581,0.66168 -1.9572,1.3819 -2.2237,1.60807 -0.4774,0.40524 -1.0178,0.79123 -6.3694,4.53526 -1.4869,1.04026 -3.7002,2.61364 -4.9247,3.49253 -1.2245,0.87889 -3.1595,2.22796 -4.2966,3.00257 -3.2246,2.19674 -3.3755,2.40679 -4.1332,5.67849 l -0.6784,2.95232 -2.2488,1.90958 c -1.2342,1.04959 -4.048,3.45347 -6.2564,5.33929 -2.2083,1.88579 -5.6643,4.81569 -7.676,6.50766 -2.0117,1.69205 -4.3009,3.66604 -5.0881,4.39707 -0.7871,0.73103 -3.1522,2.75931 -5.2513,4.51013 -5.256,4.3838 -6.4794,5.62041 -8.2037,8.19111 -0.8214,1.22454 -2.2061,3.22281 -3.0779,4.44732 -2.598,3.64927 -2.5636,3.40151 -0.7664,5.32673 4.382,4.69411 6.1829,5.60898 18.7315,9.49766 1.2245,0.37946 3.0204,0.95413 3.9825,1.26887 1.6635,0.54425 11.8058,3.74672 16.2189,5.12572 1.1371,0.3553 2.8571,0.90323 3.8192,1.21861 0.9621,0.31531 3.6812,1.17932 6.0428,1.90959 5.4576,1.68763 8.0158,2.50016 10.0127,3.17845 0.8747,0.29709 2.9488,0.97105 4.6107,1.495 l 3.0277,0.94223 1.696,2.99 c 0.9348,1.64321 2.0619,3.71084 2.5126,4.58551 3.2364,6.2804 9.8056,16.269133 15.352,23.367273 1.6619,2.12679 3.6354,4.6717 4.3845,5.66593 0.7492,0.99419 3.7139,4.33475 6.5956,7.4122 5.9368,6.34009 3.6525,4.8181 19.2341,12.76405 3.9359,2.00715 12.0174,6.14168 17.9651,9.18359 15.7663,8.06354 23.8951,12.18754 26.3196,13.37964 l 2.1357,1.0553 0,3.89454 c 0,2.14291 -0.035,3.89454 -0.1005,3.89454 -0.1467,0 -12.0627,-5.76364 -22.312,-10.80421 -9.3093,-4.5783 -18.2552,-8.92728 -29.5106,-14.347 l -8.5177,-4.10812 -3.0905,0 -3.0905,-0.0125 -1.0176,-1.495 c -0.5614,-0.8278 -1.4328,-2.07672 -1.9348,-2.77644 -0.8934,-1.24545 -3.1846,-4.49614 -6.7212,-9.51022 -0.9729,-1.37948 -2.1495,-3.02359 -2.6005,-3.65585 -1.191,-1.66946 -4.6059,-6.53075 -6.4072,-9.1082 -0.8558,-1.22455 -2.2208,-3.17423 -3.0402,-4.33426 -4.8251,-6.83063 -5.818,-8.23601 -7.676,-10.87959 -1.9547,-2.780963 -3.3873,-4.796233 -5.9047,-8.316743 -0.6254,-0.87467 -1.3286,-1.86449 -1.5578,-2.19853 -0.3925,-0.57227 -0.4583,-0.57272 -1.1684,-0.0754 -1.1234,0.78683 -6.8127,0.71346 -10.4147,-0.12563 -5.0647,-1.17976 -7.5075,-1.99385 -11.1937,-3.74379 -2.0117,-0.95499 -4.5158,-2.12351 -5.5654,-2.60055 -1.8217,-0.82787 -4.3777,-2.05063 -13.7189,-6.54534 -2.2985,-1.10595 -6.0301,-2.87184 -8.2916,-3.93224 l -4.1081,-1.93471 -3.0779,0 c -1.6938,0 -3.0905,0.0842 -3.0905,0.18845 0,0.16788 2.1707,5.41632 3.8694,9.35947 0.3391,0.78715 1.4457,2.29218 2.4623,3.34177 1.0167,1.04954 3.9058,4.19873 6.4197,6.99761 2.5139,2.79893 5.6645,6.22635 6.9977,7.625773 1.3331,1.39947 4.6151,4.97861 7.2991,7.95241 2.6839,2.97384 6.6729,7.29808 8.8569,9.61073 2.6971,2.85593 4.0869,4.59813 4.3469,5.41467 0.2105,0.66124 0.7135,2.26845 1.1055,3.58047 0.392,1.31198 0.9573,3.17113 1.2688,4.13324 2.223,6.86489 2.2218,6.76437 1.2941,15.99276 -0.3382,3.36344 -0.6986,7.54731 -0.8041,9.29665 -0.1055,1.74926 -0.3966,5.11348 -0.6407,7.47501 -0.2441,2.36157 -0.5173,5.66491 -0.6156,7.33682 -0.098,1.67191 -0.3973,5.09929 -0.6533,7.62577 -0.9242,9.12165 -1.1809,15.1296204 -0.7412,17.3244404 0.1051,0.52479 0.5022,2.30806 0.8794,3.96992003 0.3773,1.66181997 0.9708,4.30516997 1.3192,5.87950997 0.3482,1.57442 0.8657,3.8002096 1.1432,4.9372696 0.2775,1.13703 0.5423,2.4271 0.5905,2.86438 0.048,0.43735 0.3304,1.79058 0.6281,3.01513 0.2977,1.2245 0.5883,2.64194 0.6533,3.14076 0.065,0.49886 0.4032,1.99129 0.7412,3.32921 0.338,1.33795 0.898,3.80306 1.2563,5.46492 0.3583,1.66186 0.8838,4.01429 1.1558,5.23879 0.272,1.22451 0.5493,2.59034 0.6281,3.02769 0.079,0.43732 0.4345,2.00563 0.779,3.49253 0.3444,1.48694 0.9293,4.14277 1.3065,5.89207 0.3685,1.70853 0.9475,4.17119 1.3191,5.59055 -2.8673,0.44074 -5.7595,0.80993 -8.6685,1.11812 -0.1058,-0.54454 -0.2002,-1.02199 -0.314,-1.62064 -0.366,-1.92425 -0.9383,-4.96676 -1.2815,-6.75892 -0.3432,-1.79215 -0.912,-4.80213 -1.2688,-6.68354 -0.3568,-1.8814 -0.9321,-4.78302 -1.2689,-6.44484 -0.9936,-4.90264 -1.582,-7.98059 -1.9096,-10.01274 -0.1692,-1.04959 -0.5071,-2.84542 -0.7538,-3.98249 -0.2467,-1.13703 -0.7542,-3.70449 -1.1307,-5.71619 -0.5366,-2.8678296 -1.0396,-4.3884796 -2.3116,-7.0478596 l -1.6206,-3.39203 0.3895,-4.24631 c 0.3701,-4.01981 0.8163,-8.5701004 2.2488,-22.8521704 0.3421,-3.41116 0.9182,-9.27941 1.2814,-13.04045 0.3632,-3.76103 0.9458,-9.4776 1.2814,-12.7138 0.3356,-3.23628 0.6867,-7.01661 0.7915,-8.39211 l 0.1885,-2.50005 -1.784,-2.32416 c -0.9811,-1.28095 -1.89,-2.38219 -2.0227,-2.43723 -0.1326,-0.055 -1.6174,-1.80793 -3.304,-3.90711 -3.0278,-3.76843 -5.147,-6.37101 -11.6837,-14.32187 -9.0214,-10.97339 -8.9785,-10.91375 -13.3294,-18.907383 -2.2896,-4.20667 -4.1583,-7.80043 -4.1583,-7.9901 0,-0.18967 -3.0417,-3.33164 -6.7589,-6.98505 l -6.759,-6.64585 -2.1231,-0.0125 -2.1358,0 -0.1005,3.19102 -0.1005,3.19101 1.0805,1.01761 c 0.5914,0.55973 1.7739,2.07622 2.6257,3.36689 1.3616,2.06348 1.5452,2.55376 1.5452,4.03274 0,0.92512 -0.1075,1.73364 -0.2387,1.79652 -0.1312,0.0629 -1.2907,1.19714 -2.5754,2.52517 -2.235,2.31043 -2.3395,2.48364 -2.387,4.00761 l -0.05,1.59551 2.2363,0.17588 c 4.2223,0.3391 6.6649,1.773683 7.0478,4.133243 0.2261,1.39323 -0.181,2.20396 -3.6432,7.47501 l -2.5126,3.83173 2.4121,0.54021 c 2.5594,0.57625 8.4593,2.30638 9.2589,2.71362 0.2624,0.13367 1.0466,0.48459 1.7463,0.77891 8.5607,3.60079 15.5518,9.99622 19.523,17.87721 1.1064,2.19586 2.2507,4.99995 2.4372,5.94232 0.066,0.33488 0.3417,1.2582 0.603,2.06034 0.2614,0.80219 0.5421,1.88731 0.6282,2.41211 0.086,0.52479 0.3742,2.21839 0.6407,3.75635 0.8115,4.68254 0.5927,20.72695 -0.3015,22.17377 -0.092,0.14891 -0.2195,0.67352 -0.289,1.16837 -0.069,0.49484 -0.3681,1.67826 -0.6658,2.63823 -0.2978,0.95998 -0.6031,2.11086 -0.6784,2.5503 -0.075,0.43949 -0.3503,1.37319 -0.6031,2.07291 -0.2527,0.69971 -0.5185,1.6277 -0.5904,2.0729 -0.1195,0.73842 -0.7008,2.88944 -1.9347,7.1483704 -0.2535,0.87463 -0.607,2.26728 -0.7915,3.10307 -0.1845,0.8358 -0.8026,2.13693 -1.3694,2.8895 -0.5666,0.75254 -1.842,2.43319003 -2.8392,3.73123003 -0.9973,1.29802997 -3.8423,5.00510997 -6.3192,8.24134997 -2.477,3.2362496 -5.5226,7.2152496 -6.7715,8.8443896 -1.2489,1.62913 -3.058,4.02098 -4.0202,5.3016 -3.1438,4.18463 -3.9619,5.15067 -4.6106,5.49005 -0.3518,0.18401 -2.5561,1.3068 -4.8996,2.48749 l -4.2589,2.13571 -3.6935,-0.17588 c -7.9382,-0.40173 -12.8745,-2.30539 -17.4752,-6.72123 -2.1019,-2.01738 -3.9062,-4.42223 -5.1383,-6.85942 -0.6328,-1.2518 -4.5112,-7.15249 -13.9198,-21.1812896 -1.4203,-2.11755 -2.8691,-4.66598 -3.2162,-5.65337 -0.347,-0.98744 -0.5617,-1.79652 -0.49,-1.79652 0.072,0 -0.1473,-0.7524804 -0.4774,-1.6708804 -0.5826,-1.62122 -1.9682,-6.07485 -2.1106,-6.78405 -0.038,-0.19313 -0.3706,-1.26812 -0.7286,-2.38698 -0.3581,-1.11881 -0.9342,-2.95891 -1.294,-4.08299 -0.6203,-1.9382 -0.6505,-2.64911 -0.5528,-13.83191 0.081,-9.27973 0.209,-12.26824 0.6031,-14.02036 0.2753,-1.2245 0.5727,-2.79281 0.6658,-3.49252 0.5422,-4.07775 4.2526,-11.90639 7.9524,-16.78423 4.0934,-5.39656 9.5366,-9.42486 15.7917,-11.68363 2.6068,-0.94133 9.7038,-2.5503 11.2565,-2.5503 0.4611,0 0.8292,-0.0749 0.8292,-0.17589 0,-0.10094 -1.0131,-1.92845 -2.2614,-4.05786 -1.2483,-2.12936 -2.6158,-4.49771 -3.0276,-5.26391 l -0.7413,-1.3945 0.7036,-1.54526 0.7161,-1.557813 3.9196,0 c 3.9167,0 3.9221,-4.1e-4 3.7061,-0.7161 -0.2671,-0.88432 -2.278,-6.81188 -3.4925,-10.31426 l -0.9045,-2.60055 1.7588,-2.16084 c 3.4101,-4.22987 4.083,-5.82174 3.4046,-7.96497 -0.3698,-1.16821 -0.5429,-1.17424 -4.573,-0.0377 -2.2144,0.62449 -2.249,0.65625 -7.5629,5.92976 -3.4788,3.45236 -5.9338,6.19514 -7.0353,7.8519 -0.9304,1.39942 -3.2381,4.90268 -5.1257,7.78909 -1.8876,2.88632 -4.9003,7.464623 -6.6836,10.176063 -1.7833,2.71145 -4.7842,7.2897 -6.671,10.17607 -8.0515,12.31745 -9.8157,14.95002 -10.0253,14.95002 -0.1219,0 -0.5876,0.34459 -1.0427,0.76635 -0.455,0.42172 -2.0549,1.73038 -3.5554,2.90206 -1.8863,1.47295 -2.6871,2.28987 -2.5879,2.6508 0.079,0.28713 0.3686,2.81676 0.6407,5.61569 0.6806,6.99948 1.6519,17.1185 2.4246,25.27684 1.0255,10.82649 1.8307,19.0728 2.5252,25.7793704 0.6353,6.13611 0.635,6.24249 0.038,8.74388 -0.3326,1.39315 -0.9198,3.96689 -1.3065,5.71619 -0.3867,1.7493296 -0.9722,4.3072096 -1.3066,5.6784896 -0.3344,1.3712 -0.6671,2.86367 -0.7287,3.32921 -0.062,0.46554 -0.3319,1.77756 -0.603,2.91463 -0.1094,0.45872 -0.2849,1.19797 -0.4522,1.9347 -2.5521,-1.68959 -5.0635,-3.44132 -7.5253,-5.25135 0.2185,-1.16018 0.4239,-2.4264 0.5779,-3.51765 0.7589,-5.3775096 1.6268,-11.5892796 2.4121,-17.3369996 0.3704,-2.71141 0.9466,-6.71532 1.2814,-8.9072004 0.5955,-3.89772 0.5907,-4.04864 0.013,-6.68354 -3.7866,-17.25013 -5.2242,-36.65947 -3.5554,-48.0034 l 0.7287,-4.92471 5.7162,-7.63833 c 3.1433,-4.20454 5.8826,-7.8659 6.0931,-8.12829 0.2105,-0.26244 2.087,-2.76655 4.1709,-5.56543 2.0839,-2.79889 3.8828,-5.16388 3.995,-5.25135 0.1123,-0.0875 1.0022,-1.22576 1.9724,-2.537743 0.9703,-1.31198 5.5346,-6.17746 10.151,-10.81678 6.6648,-6.69809 8.5387,-8.7678 9.0831,-10.02531 1.0558,-2.43888 2.3367,-5.58517 2.3367,-5.74131 0,-0.19394 -3.8474,0.1283 -8.5931,0.71609 -2.7413,0.33954 -4.4153,0.71794 -5.4021,1.21862 -0.7872,0.39936 -3.2155,1.58869 -5.4022,2.63824 -2.1866,1.04958 -6.1324,2.93888 -8.7564,4.20862 -13.3725,6.47083 -19.5851,9.32531 -21.4577,9.84942 -4.6503,1.30162 -9.4482,1.33858 -11.357,0.0879 -0.9199,-0.60278 -0.361,-1.24237 -5.6659,6.5956 -2.1904,3.236203 -5.7831,8.522773 -7.9775,11.759013 -5.2418,7.73028 -9.2435,13.66934 -10.6786,15.842 -0.6379,0.96581 -1.3153,1.98372 -1.5076,2.26135 -3.2866,4.74638 -5.7979,8.43077 -6.5579,9.61073 -0.5211,0.80898 -1.6593,2.55076 -2.5251,3.86942 l -1.5704,2.39954 -3.2036,0.36433 c -1.462,0.16483 -2.6529,0.30222 -3.7312,0.43971 -1.3141,-2.8982 -2.5638,-5.83144 -3.7313,-8.8067 2.2785,-1.13572 4.0528,-2.03808 4.1082,-2.11059 0.1479,-0.19369 0.9695,-0.67973 4.8493,-2.86438 1.2954,-0.72938 1.9753,-1.54559 4.7363,-5.75387 1.7707,-2.69898 3.8247,-5.83542 4.5729,-6.97249 1.2257,-1.86275 6.6271,-10.11659 12.1736,-18.60587 1.1429,-1.749303 2.9236,-4.450473 3.9448,-5.992573 1.0212,-1.54214 1.8467,-2.85006 1.8467,-2.91463 0,-0.0645 0.8638,-1.40123 1.9096,-2.96488 1.6312,-2.43851 2.0742,-2.88829 3.1031,-3.16588 0.6596,-0.17802 1.8384,-0.54832 2.6256,-0.82917 1.6036,-0.57211 8.9009,-2.96688 20.9929,-6.88454 4.4607,-1.4453 11.0373,-3.59677 14.6234,-4.77396 15.3014,-5.02309 20.255,-6.62256 21.0808,-6.80917 0.4826,-0.10903 2.372,-1.56841 4.2086,-3.25383 l 3.3418,-3.06538 0,-1.78396 0,-1.79651 -15.2013,-15.17616 c -8.3607,-8.34878 -15.3656,-15.17616 -15.5656,-15.17616 -0.2001,0 -2.0744,-0.99915 -4.171,-2.22366 -2.0965,-1.2245 -3.9739,-2.23622 -4.1583,-2.23622 -0.812,0 -1.6923,-2.74198 -2.4247,-7.55039 -0.1132,-0.74345 -0.3063,-1.35681 -0.4271,-1.35681 -0.271,0 -5.7698,-3.24338 -7.5127,-4.43475 -0.7009,-0.47909 -2.913,-1.8642 -4.9248,-3.06539 -2.0116,-1.20123 -3.8075,-2.29463 -3.9825,-2.43723 -0.2983,-0.24322 -3.8736,-2.45301 -6.6458,-4.10811 -0.6802,-0.40608 -1.8943,-1.16593 -2.7011,-1.68345 -0.8067,-0.51752 -1.7481,-1.1043 -2.098,-1.30656 -3.5915,-2.07662 -4.5325,-2.83187 -6.181,-5.01265 -0.9751,-1.29008 -3.0632,-4.05174 -4.6483,-6.13077 -2.8786,-3.77551 -3.1501,-4.32336 -4.7488,-9.53535 -0.2729,-0.88967 -0.5593,-1.90343 -0.6282,-2.26135 -0.069,-0.35791 -0.7039,-2.57361 -1.4196,-4.91215 -0.3858,-1.26069 -0.742,-2.42102 -1.1055,-3.61816 2.1861,-3.19681 4.4706,-6.3229 6.8468,-9.37203 0.3409,0.93361 0.5905,1.70452 0.5905,1.8719 0,0.21359 0.2375,0.84721 0.5276,1.40706 0.2902,0.55985 0.6383,1.44764 0.779,1.97239 0.1406,0.52484 0.6278,1.95391 1.0678,3.17846 0.4399,1.2245 2.2769,6.66279 4.0956,12.08564 l 3.3166,9.862 2.1859,1.20605 c 2.1916,1.21497 5.692,3.07662 12.5254,6.67097 2.0117,1.05819 4.0798,2.18579 4.5981,2.50005 0.5182,0.31426 4.4207,4.03702 8.681,8.26648 l 7.7514,7.68859 1.5453,-1.53269 c 1.6809,-1.65563 1.5869,-1.66186 3.3417,-0.0503 0.3522,0.32339 1.4882,1.24507 2.5378,2.04778 1.0496,0.80267 2.7063,2.13065 3.6684,2.93975 0.9621,0.8091 2.6696,2.16682 3.8066,3.0277 3.205,2.42657 3.694,2.92301 5.8167,5.96744 1.0915,1.56558 2.4149,3.46312 2.9397,4.20862 0.5248,0.7455 1.6576,2.40527 2.5252,3.69354 0.8677,1.28822 1.6566,2.41257 1.7589,2.50005 0.1022,0.0874 0.7618,1.02331 1.4573,2.0729 1.9806,2.9892 3.7835,5.30874 5.0629,6.52022 l 1.1683,1.10555 -0.1758,-1.43219 c -0.1005,-0.78719 -0.3983,-3.0005 -0.6533,-4.92471 -0.7437,-5.6112 -0.8673,-8.43325 -0.5025,-10.98011 0.6521,-4.5526 1.0653,-5.45435 4.0075,-8.80669 3.6876,-4.20157 6.5765,-7.72627 6.3444,-7.72627 -0.1058,0 -0.5045,0.20289 -0.892,0.45227 -2.0005,1.28734 -4.7865,1.90996 -8.6559,1.92214 -4.4213,0.0137 -6.7024,-0.5829 -10.9801,-2.82668 -2.3219,-1.21796 -2.7795,-1.61531 -5.176,-4.64833 -1.4444,-1.82813 -3.152,-4.0691 -3.794,-4.97497 -1.1648,-1.6432 -4.0145,-6.83437 -4.2463,-7.73883 -0.067,-0.2624 -0.4175,-1.33739 -0.7915,-2.38698 -0.622,-1.74556 -0.6902,-2.58877 -0.7161,-9.86199 -0.028,-7.74426 -0.01,-8.02083 0.8292,-10.86704 0.4719,-1.6073 0.8668,-3.18415 0.8668,-3.50508 0,-0.48834 1.0149,-3.4473 2.0603,-5.98001 0.1444,-0.34984 0.2778,-0.704 0.3015,-0.79148 0.426,-1.57172 0.5253,-1.65098 12.7138,-10.7414 2.6408,-1.96956 5.1648,-3.93712 5.6157,-4.37194 l 0.8166,-0.79147 -0.7035,-2.09803 c -0.3884,-1.15411 -0.8296,-2.21146 -0.9799,-2.36185 -0.2705,-0.27048 -2.0907,-1.32879 -4.2463,-2.46236 -1.8691,-0.98289 -11.7215,-6.73978 -15.2641,-8.91976 -1.8368,-1.13023 -3.8477,-2.36047 -4.4599,-2.72618 -1.6833,-1.00553 -4.2469,-2.67002 -4.6609,-3.02769 -0.2021,-0.17456 -1.1254,-0.78591 -2.0603,-1.35681 -0.935,-0.57095 -1.8773,-1.21775 -2.0981,-1.43219 -0.2207,-0.21444 -1.5865,-1.25317 -3.0276,-2.3116 -0.08,-0.0587 -0.1512,-0.11834 -0.2262,-0.17588 -48.8894,33.53039 -80.9562,89.80953 -80.9562,153.57066 0,102.767293 83.3039,186.071263 186.0712,186.071263 102.7673,0 186.0838,-83.30397 186.0838,-186.071263 0,-90.64917 -64.8252,-166.16949 -150.6434,-182.71693 z m -99.2355,157.1637 c -0.6442,0.0236 -0.6367,0.20044 -0.5528,1.50756 0.089,1.3835 0.1663,1.51593 0.9674,1.60807 0.6179,0.0711 0.8794,0.28163 0.8794,0.71609 0,0.44841 0.2207,0.61559 0.8165,0.61559 0.6656,0 0.7989,-0.13329 0.7162,-0.71609 -0.065,-0.45991 -0.3567,-0.75127 -0.8167,-0.8166 -0.6191,-0.088 -0.716,-0.28841 -0.716,-1.50756 0,-1.35926 -0.043,-1.40706 -0.9799,-1.40706 -0.1201,0 -0.2221,-0.003 -0.3141,0 z m 39.071,1.58294 c -0.4025,0.0415 -0.5653,0.24111 -0.5653,0.64071 0,0.46651 -0.2084,0.64072 -0.7915,0.64072 -0.6361,0 -0.804,0.15536 -0.804,0.79147 0,0.63611 0.1679,0.79147 0.804,0.79147 0.5736,0 0.7915,-0.17268 0.7915,-0.61559 0,-0.39458 0.2561,-0.65076 0.7161,-0.71609 1.0441,-0.14826 1.0782,-1.53269 0.038,-1.53269 -0.068,0 -0.131,-0.006 -0.1885,0 z"
       id="path4615"
       inkscape:connector-curvature="0" />
  </g>
</svg>
