<?xml version="1.0" encoding="UTF-8"?>
<!DOCTYPE svg PUBLIC "-//W3C//DTD SVG 1.1//EN" "http://www.w3.org/Graphics/SVG/1.1/DTD/svg11.dtd">
<!-- Creator: CorelDRAW -->
<svg xmlns="http://www.w3.org/2000/svg" xml:space="preserve" width="210mm" height="297mm" style="shape-rendering:geometricPrecision; text-rendering:geometricPrecision; image-rendering:optimizeQuality; fill-rule:evenodd; clip-rule:evenodd"
viewBox="0 0 210 297"
 xmlns:xlink="http://www.w3.org/1999/xlink">
 <defs>
  <style type="text/css">
   <![CDATA[
    .str0 {stroke:green;stroke-width:0.2646}
    .fil0 {fill:lime}
   ]]>
  </style>
 </defs>
 <g id="Слой_x0020_1">
  <metadata id="CorelCorpID_0Corel-Layer"/>
  <path id="path2998" class="fil0 str0" d="M-283.56 140.144c0,-0.5836 0.2248,-3.3642 0.4989,-6.1792 0.2741,-2.815 0.4986,-5.7801 0.4988,-6.5892 0.0002,-0.8091 0.2115,-2.2134 0.4695,-3.1208 0.258,-0.9073 0.7135,-2.6047 1.0122,-3.7719 0.2988,-1.1672 0.7211,-2.7401 0.9386,-3.4953 0.2175,-0.7552 0.5373,-1.9911 0.7109,-2.7463 0.1735,-0.7552 0.711,-2.8899 1.1944,-4.7436 0.4834,-1.8537 1.0975,-4.2131 1.3646,-5.2429 0.2672,-1.0299 0.676,-3.2207 0.9086,-4.8684 0.5957,-4.2211 1.2722,-9.0949 1.8885,-13.6066 0.2908,-2.1284 0.7437,-5.2775 1.0066,-6.998 0.4674,-3.0596 0.4677,-3.1746 0.0138,-5.2429 -2.9723,-13.5407 -4.1008,-28.7783 -2.7908,-37.6828l0.568 -3.8609 4.4862 -6.0008c2.4674,-3.3004 4.6213,-6.1693 4.7866,-6.3752 0.1652,-0.206 1.6387,-2.1721 3.2745,-4.3691 1.6358,-2.197 3.0462,-4.0508 3.1343,-4.1194 0.0881,-0.0687 0.7833,-0.9674 1.5449,-1.9973 0.7616,-1.0299 4.3495,-4.8521 7.9732,-8.4938 5.2316,-5.2578 6.6992,-6.8773 7.1265,-7.8644 0.8288,-1.9145 1.8337,-4.3844 1.8337,-4.5069 0,-0.1522 -3.0156,0.098 -6.7409,0.5594 -2.1518,0.2665 -3.4697,0.5635 -4.2443,0.9565 -0.6179,0.3135 -2.5279,1.244 -4.2443,2.0679 -1.7164,0.8239 -4.806,2.3134 -6.8657,3.3101 -10.4969,5.0794 -15.3824,7.321 -16.8522,7.7324 -3.6504,1.0217 -7.4102,1.0509 -8.9085,0.0692 -0.7221,-0.4731 -0.2845,-0.9817 -4.4488,5.1708 -1.7194,2.5403 -4.5355,6.6972 -6.258,9.2375 -4.1146,6.068 -7.2571,10.7289 -8.3836,12.4344 -0.5007,0.7581 -1.0339,1.5567 -1.1848,1.7746 -2.5799,3.7258 -4.5538,6.6165 -5.1503,7.5427 -0.409,0.635 -1.2998,2.0015 -1.9795,3.0366l-1.2358 1.882 -2.5091 0.2829c-5.7249,0.6455 -7.2786,0.9427 -8.8908,1.7008 -0.8842,0.4157 -3.0119,1.4257 -4.7283,2.2444 -2.9437,1.4041 -5.1341,2.4611 -15.3543,7.4098 -2.3343,1.1303 -6.3421,3.0437 -8.906,4.2519 -3.9345,1.8541 -4.9471,2.4486 -6.4912,3.8106 -2.1575,1.9032 -3.8202,2.8127 -5.1417,2.8127 -1.3543,0 -1.5562,-0.3186 -1.5562,-2.4566 0,-2.0945 -0.1436,-1.8912 2.6215,-3.7108 4.8414,-3.1859 13.4073,-7.9319 24.7166,-13.6944 2.7463,-1.3993 5.6673,-2.8913 6.4912,-3.3155 0.8239,-0.4242 4.419,-2.1973 7.9892,-3.9402 3.5702,-1.7429 6.5474,-3.2424 6.6161,-3.3323 0.1162,-0.1521 0.7616,-0.5332 3.8071,-2.248 1.0168,-0.5725 1.5457,-1.2163 3.713,-4.5196 1.39,-2.1186 3.0078,-4.5823 3.5951,-5.4748 0.9621,-1.4622 5.2008,-7.9415 9.5546,-14.6053 0.8971,-1.3731 2.287,-3.487 3.0887,-4.6975 0.8016,-1.2105 1.4575,-2.2424 1.4575,-2.293 0,-0.0507 0.6717,-1.0963 1.4927,-2.3237 1.2804,-1.9142 1.6266,-2.2678 2.4342,-2.4857 0.5178,-0.1397 1.4471,-0.4345 2.065,-0.6549 1.2587,-0.4491 6.986,-2.3267 16.4777,-5.4019 3.5015,-1.1345 8.6695,-2.8187 11.4845,-3.7428 12.0111,-3.9429 15.8937,-5.1972 16.542,-5.3436 0.3788,-0.0856 1.8663,-1.2365 3.308,-2.5594l2.6197 -2.4039 0 -1.4042 0 -1.4042 -11.9325 -11.9155c-6.5629,-6.5535 -12.061,-11.9154 -12.218,-11.9154 -0.157,0 -1.632,-0.7864 -3.2777,-1.7476 -1.6457,-0.9612 -3.1106,-1.7477 -3.2553,-1.7477 -0.6374,0 -1.3296,-2.1551 -1.9046,-5.9295 -0.0889,-0.5836 -0.2393,-1.0611 -0.3341,-1.0611 -0.2126,0 -4.5305,-2.5545 -5.8987,-3.4897 -0.5502,-0.3761 -2.2923,-1.4553 -3.8715,-2.3982 -1.5791,-0.9429 -2.9835,-1.8059 -3.1208,-1.9179 -0.2342,-0.1909 -3.0389,-1.9249 -5.215,-3.2241 -0.5339,-0.3188 -1.4889,-0.9119 -2.1221,-1.3182 -0.6333,-0.4062 -1.3761,-0.8685 -1.6508,-1.0273 -2.8193,-1.6301 -3.5559,-2.2286 -4.8499,-3.9404 -0.7654,-1.0127 -2.4097,-3.1764 -3.6539,-4.8084 -2.2596,-2.9637 -2.4726,-3.3912 -3.7275,-7.4824 -0.2142,-0.6983 -0.4338,-1.4996 -0.4878,-1.7805 -0.0541,-0.281 -0.558,-2.0127 -1.1198,-3.8484 -2.0017,-6.5406 -3.717,-12.3115 -3.8892,-13.0843 -0.0624,-0.28 -0.3341,-1.1507 -0.6039,-1.9349 -0.2698,-0.7842 -0.4414,-1.4258 -0.3812,-1.4258 0.0601,0 -0.0505,-0.4213 -0.2459,-0.9362 -0.1954,-0.5149 -0.7139,-2.1721 -1.1523,-3.6825 -0.4384,-1.5105 -0.9931,-3.3501 -1.2326,-4.0881 -0.4173,-1.2852 -0.4161,-1.4168 0.0265,-3.1208 0.2542,-0.9784 0.4641,-2.0955 0.4664,-2.4824 0.0037,-0.6126 0.0768,-0.6815 0.566,-0.5337 0.309,0.0933 0.8716,0.4599 1.2503,0.8145 1.0416,0.9753 3.4751,5.2718 5.0472,8.9112 0.771,1.7851 1.5137,3.4478 1.6503,3.6949 0.1366,0.2471 0.5366,1.2582 0.889,2.247 0.3524,0.9887 0.7895,2.1348 0.9714,2.5467 0.6912,1.5656 1.6139,4.0461 1.6139,4.3387 0,0.1677 0.1863,0.6644 0.4141,1.1039 0.2278,0.4394 0.5045,1.136 0.6149,1.548 0.1104,0.412 0.4833,1.5354 0.8287,2.4966 0.3454,0.9612 1.7959,5.2304 3.2235,9.4872l2.5956 7.7396 1.7166 0.9517c1.7203,0.9537 4.4667,2.4173 9.8306,5.2388 1.5791,0.8306 3.204,1.7121 3.6108,1.9587 0.4068,0.2467 3.4758,3.1649 6.82,6.4849l6.0803 6.0363 1.2193 -1.2009c1.3195,-1.2996 1.2364,-1.2986 2.6139,-0.0335 0.2764,0.2538 1.1767,0.9771 2.0005,1.6072 0.8239,0.6301 2.1159,1.6653 2.8711,2.3004 0.7552,0.6351 2.1034,1.7077 2.996,2.3834 2.5158,1.9048 2.8927,2.2918 4.5589,4.6816 0.8568,1.2289 1.8949,2.7132 2.3069,3.2984 0.4119,0.5852 1.3062,1.8913 1.9873,2.9026 0.681,1.0112 1.3039,1.8948 1.3842,1.9634 0.0803,0.0687 0.5926,0.7989 1.1385,1.6228 1.5547,2.3464 2.9676,4.1671 3.9718,5.1181l0.9227 0.8738 -0.1434 -1.1235c-0.0789,-0.6179 -0.3072,-2.3593 -0.5074,-3.8698 -0.5838,-4.4046 -0.6864,-6.6142 -0.4,-8.6134 0.5119,-3.5736 0.8367,-4.2881 3.1463,-6.9195 2.8946,-3.2981 5.1685,-6.0629 4.9862,-6.0629 -0.083,0 -0.3997,0.1601 -0.7039,0.3559 -1.5703,1.0105 -3.7572,1.4947 -6.7945,1.5043 -3.4706,0.0108 -5.2649,-0.449 -8.6228,-2.2103 -1.8227,-0.956 -2.1778,-1.276 -4.0589,-3.6568 -1.1338,-1.435 -2.4739,-3.1909 -2.9779,-3.9019 -0.9143,-1.2898 -3.1468,-5.3623 -3.3288,-6.0722 -0.0528,-0.206 -0.3362,-1.0486 -0.6298,-1.8725 -0.4882,-1.3702 -0.5357,-2.0303 -0.556,-7.7395 -0.0217,-6.079 -0.0048,-6.3013 0.6512,-8.5355 0.3704,-1.2617 0.6735,-2.5 0.6735,-2.752 0,-0.3833 0.8027,-2.7029 1.6233,-4.6909 0.1133,-0.2746 0.2213,-0.5555 0.2399,-0.6242 0.3344,-1.2338 0.4042,-1.2928 9.9718,-8.4284 2.0729,-1.546 4.0586,-3.0902 4.4126,-3.4315l0.6436 -0.6205 -0.5544 -1.6472c-0.3049,-0.906 -0.6509,-1.7438 -0.769,-1.8618 -0.2123,-0.2123 -1.6423,-1.0398 -3.3344,-1.9296 -1.4672,-0.7715 -9.2029,-5.2926 -11.9838,-7.0038 -1.4418,-0.8872 -3.0147,-1.848 -3.4953,-2.1351 -1.3213,-0.7893 -3.334,-2.0974 -3.6589,-2.3782 -0.1586,-0.137 -0.8889,-0.6158 -1.6228,-1.064 -0.7339,-0.4482 -1.4762,-0.9526 -1.6494,-1.1209 -0.1732,-0.1683 -1.2406,-0.9858 -2.3718,-1.8167 -2.3411,-1.7194 -3.784,-3.2266 -5.1557,-5.3848 -0.5236,-0.8239 -1.79,-2.79 -2.8141,-4.3691 -1.7435,-2.6883 -2.5936,-4.0067 -5.393,-8.3637 -0.6176,-0.9612 -1.3879,-2.1469 -1.7117,-2.6349 -0.3239,-0.488 -0.5888,-1.0707 -0.5888,-1.2949 0,-0.2242 -0.2239,-1.3417 -0.4976,-2.4832 -0.7141,-2.9787 -0.721,-2.9494 0.6913,-2.9494 1.3376,0 0.6597,-0.6993 5.5662,5.7423 4.5201,5.9344 7.7219,10.9462 7.7219,12.0873 0,0.6702 0.9591,2.0054 2.1672,3.0173 2.7978,2.3433 5.1194,4.1247 7.6945,5.9044 4.2236,2.9189 14.0191,9.1148 17.7577,11.2321 0.6397,0.3623 3.15,2.6342 5.5784,5.0485l4.4153 4.3898 1.4786 -0.231c4.8279,-0.7543 6.199,-0.8627 10.9658,-0.8669 4.7501,-0.0042 7.1179,0.1733 11.7339,0.8799l1.4977 0.2293 6.2419 -6.2098c3.6868,-3.6678 6.5485,-6.317 6.9908,-6.4716 0.4119,-0.144 1.3388,-0.4946 2.0597,-0.7792 0.7209,-0.2846 1.8526,-0.7252 2.5149,-0.9791 2.2092,-0.847 8.1189,-4.3582 11.0267,-6.5516 1.5805,-1.1922 3.9988,-3.3319 5.3738,-4.755 2.3309,-2.4124 2.7163,-2.9674 5.6975,-8.2048 1.7586,-3.0896 3.2964,-5.786 3.4173,-5.9919 0.1209,-0.206 0.8365,-1.4474 1.5902,-2.7586 1.3325,-2.3183 1.4173,-2.4073 3.0706,-3.2238 0.9351,-0.4619 2.007,-0.9918 2.382,-1.1776 0.6576,-0.3258 0.6742,-0.3177 0.4651,0.2279 -0.8259,2.1546 -5.9811,12.601 -8.1028,16.4194 -0.9537,1.7164 -1.8588,3.3455 -2.0113,3.6201 -1.8553,3.3425 -5.2786,7.365 -6.2678,7.365 -0.4736,0 -1.1161,0.3328 -4.1141,2.1308 -1.1672,0.7 -3.5265,2.0995 -5.2429,3.11 -2.9335,1.7271 -7.1542,4.2333 -7.9892,4.7439 -0.206,0.126 -0.9924,0.5864 -1.7477,1.0231 -1.2199,0.7055 -10.4961,9.2737 -10.4792,9.6794 0.0064,0.1553 1.4271,1.2374 4.6347,3.53 0.8645,0.6179 2.168,1.5806 2.8967,2.1393 0.7287,0.5587 2.6242,1.9844 4.2123,3.1683l2.8874 2.1525 0.8932 2.0747c2.9148,6.77 3.6602,12.5813 2.5396,19.8007 -0.2131,1.3731 -0.4347,2.8337 -0.4923,3.2456 -0.0577,0.4119 -0.2843,1.3669 -0.5036,2.1221 -0.2194,0.7552 -0.4401,1.5862 -0.4906,1.8466 -0.3966,2.0458 -1.7133,3.9151 -5.46,7.7517 -2.5436,2.6046 -5.3849,4.8263 -7.5587,5.9103 -1.5908,0.7933 -1.8362,0.8422 -4.0648,0.8099 -1.3045,-0.019 -3.5442,-0.2696 -4.9771,-0.5571 -1.4329,-0.2874 -2.6559,-0.4721 -2.7177,-0.4103 -0.1579,0.1579 0.488,1.096 1.4633,2.1253 1.2311,1.2992 3.8648,5.0072 4.7323,6.6624 0.4184,0.7984 0.7741,1.7887 0.7905,2.2007 0.0464,1.1704 -0.4808,8.1255 -0.9066,11.9612 -0.212,1.91 -0.3409,3.5173 -0.2864,3.5718 0.0545,0.0545 0.7823,-0.8341 1.6173,-1.9747 0.835,-1.1406 1.6722,-2.2424 1.8604,-2.4483 0.1882,-0.206 0.8094,-1.0486 1.3805,-1.8725 0.5711,-0.8239 1.2911,-1.8342 1.6,-2.2452 0.7803,-1.038 4.478,-6.1081 5.0088,-6.8675 0.2399,-0.3433 1.1029,-1.5229 1.9178,-2.6215 0.8149,-1.0985 1.937,-2.64 2.4936,-3.4256 0.957,-1.3507 1.6014,-1.8871 5.4972,-4.5755 0.8925,-0.6159 2.1611,-1.5059 2.8189,-1.9778 1.3585,-0.9745 1.4244,-0.9663 3.5114,0.437 1.2154,0.8172 1.5142,0.9257 1.7724,0.6437 0.1708,-0.1866 1.4362,-1.5751 2.8121,-3.0856 1.3759,-1.5105 2.8815,-3.146 3.3457,-3.6346 0.4643,-0.4886 1.8913,-2.076 3.1712,-3.5277 1.5196,-1.7237 2.6457,-2.7723 3.2456,-3.0224 1.6709,-0.6965 6.2067,-2.4233 6.3653,-2.4233 0.0858,0 0.8052,-0.2964 1.5989,-0.6588 2.6187,-1.1955 6.1895,-4.2324 8.4024,-7.1461 0.7799,-1.0268 2.5691,-4.6069 2.7832,-5.5692 0.1636,-0.7351 0.8348,-2.9014 1.6191,-5.2258 0.2316,-0.6866 0.6751,-2.0909 0.9855,-3.1208 0.3103,-1.0299 0.7614,-2.4904 1.0023,-3.2456 0.2409,-0.7552 0.693,-2.2158 1.0046,-3.2456 0.3116,-1.0299 0.7102,-2.3219 0.8858,-2.8711 0.8646,-2.7045 2.7064,-8.6471 3.7529,-12.1087 1.1272,-3.7283 1.2166,-3.9172 2.4482,-5.1683l1.2782 -1.2985 1.2061 0.5277c1.1378,0.4978 1.1978,0.5713 1.0601,1.2985 -0.2852,1.5061 -0.3491,1.7877 -0.7695,3.3923 -0.2338,0.8925 -0.4523,1.8475 -0.4854,2.1221 -0.0331,0.2746 -0.2399,1.1172 -0.4596,1.8725 -0.2197,0.7552 -0.4581,1.7102 -0.53,2.1221 -0.0719,0.4119 -0.2955,1.4231 -0.497,2.247 -0.2015,0.8239 -0.6038,2.5091 -0.8939,3.7449 -0.2901,1.2358 -0.7541,3.0944 -1.0311,4.1302 -0.2769,1.0358 -0.535,2.1593 -0.5735,2.4966 -0.0384,0.3374 -0.2546,1.2443 -0.4803,2.0155 -0.2257,0.7712 -0.4608,1.7823 -0.5225,2.2469 -0.2111,1.5904 -1.1524,4.1848 -2.6788,7.3829 -0.8396,1.7593 -2.1709,4.547 -2.9583,6.1948 -0.7874,1.6478 -1.682,3.5794 -1.9881,4.2925 -0.473,1.1022 -0.8428,1.4931 -2.4666,2.6072 -1.0506,0.7208 -1.9664,1.3822 -2.035,1.4698 -0.0687,0.0876 -1.0135,0.7681 -2.0997,1.5122 -1.0862,0.7442 -2.7152,1.8779 -3.6201,2.5193 -0.9049,0.6415 -2.2606,1.5913 -3.0127,2.1107 -0.7521,0.5194 -1.5385,1.0896 -1.7477,1.2672 -0.3748,0.3181 -0.7982,0.6195 -4.999,3.5584 -1.1672,0.8166 -2.9086,2.0491 -3.8698,2.739 -0.9612,0.6899 -2.4779,1.7518 -3.3705,2.3598 -2.5312,1.7243 -2.6483,1.8852 -3.2432,4.4533l-0.537 2.3183 -1.7615 1.498c-0.9688,0.8239 -3.1798,2.7091 -4.9132,4.1894 -1.7334,1.4803 -4.4438,3.7781 -6.0229,5.1063 -1.5791,1.3282 -3.3767,2.8844 -3.9946,3.4582 -0.6179,0.5738 -2.4717,2.1678 -4.1194,3.5421 -4.1258,3.4411 -5.0937,4.4054 -6.4472,6.4234 -0.6447,0.9612 -1.7321,2.5341 -2.4164,3.4953 -2.0393,2.8645 -2.0112,2.6689 -0.6005,4.1801 3.4397,3.6847 4.8568,4.4031 14.707,7.4556 0.9612,0.2979 2.3656,0.7437 3.1208,0.9908 1.3058,0.4272 9.2687,2.9475 12.7328,4.0299 0.8925,0.2789 2.2407,0.7096 2.996,0.9572 0.7552,0.2475 2.8899,0.9191 4.7436,1.4923 4.2841,1.3247 6.2969,1.9636 7.8644,2.496 0.6866,0.2332 2.3156,0.7605 3.6201,1.1718l2.3718 0.7478 1.3342 2.3452c0.7338,1.2899 1.6237,2.907 1.9774,3.5935 2.5405,4.9299 7.6889,12.7723 12.0427,18.3441 1.3045,1.6694 2.8529,3.6739 3.4409,4.4543 0.588,0.7804 2.9199,3.3954 5.1819,5.8111 4.6601,4.9767 2.8642,3.7845 15.0952,10.0217 3.0896,1.5756 9.4373,4.8183 14.106,7.2061 12.376,6.3296 18.7516,9.5736 20.6546,10.5093l1.6803 0.8262 0.005 3.0584c0.0026,1.6821 -0.0371,3.0584 -0.0884,3.0584 -0.1152,0 -9.4625,-4.5321 -17.5079,-8.4888 -7.3074,-3.5938 -14.3278,-7.0069 -23.1629,-11.2612l-6.6852 -3.219 -2.4276 -0.0045 -2.4276 -0.0045 -0.8012 -1.1814c-0.4406,-0.6498 -1.1235,-1.6308 -1.5175,-2.1801 -0.7013,-0.9776 -2.5044,-3.5255 -5.2805,-7.4614 -0.7637,-1.0828 -1.6783,-2.3748 -2.0323,-2.8711 -0.9349,-1.3105 -3.6195,-5.1207 -5.0335,-7.1439 -0.6718,-0.9612 -1.7476,-2.4927 -2.3909,-3.4032 -3.7875,-5.3618 -4.565,-6.464 -6.0235,-8.5392 -1.5343,-2.1829 -2.66,-3.7692 -4.6361,-6.5327 -0.491,-0.6866 -1.0398,-1.4628 -1.2196,-1.725 -0.3081,-0.4492 -0.3612,-0.4528 -0.9185,-0.0624 -0.8818,0.6177 -5.3483,0.5683 -8.1757,-0.0903 -3.9756,-0.9261 -5.8889,-1.5666 -8.7824,-2.9402 -1.5791,-0.7496 -3.5452,-1.6693 -4.3691,-2.0438 -1.4299,-0.6499 -3.4379,-1.6073 -10.7704,-5.1354 -1.8043,-0.8682 -4.7329,-2.2595 -6.5081,-3.0919l-3.2276 -1.5134 -2.4174 0c-1.3296,0 -2.4174,0.067 -2.4174,0.1488 0,0.1318 1.6999,4.2459 3.0333,7.3411 0.2662,0.6179 1.1369,1.7976 1.9349,2.6215 0.7981,0.8239 3.0655,3.2956 5.0388,5.4926 1.9733,2.197 4.444,4.8934 5.4905,5.9919 1.0465,1.0985 3.6265,3.9072 5.7333,6.2416 2.1068,2.3343 5.2332,5.7295 6.9476,7.5449 2.1171,2.2418 3.2135,3.6033 3.4176,4.2443 0.1653,0.519 0.5523,1.7863 0.86,2.8162 0.3077,1.0299 0.7596,2.4904 1.0041,3.2456 1.745,5.3887 1.7384,5.3073 1.0101,12.5513 -0.2654,2.6402 -0.5504,5.9238 -0.6332,7.2969 -0.0828,1.3731 -0.3074,4.0133 -0.499,5.8671 -0.1916,1.8537 -0.4115,4.4442 -0.4887,5.7566 -0.0771,1.3124 -0.3046,4.0087 -0.5056,5.9919 -0.7255,7.1602 -0.9271,11.8694 -0.582,13.5923 0.0825,0.4119 0.3923,1.8163 0.6885,3.1208 0.2961,1.3045 0.7621,3.3829 1.0355,4.6188 0.2734,1.2358 0.6753,2.9772 0.8932,3.8698 0.2178,0.8925 0.4269,1.9037 0.4647,2.247 0.0378,0.3433 0.2598,1.4106 0.4936,2.3718 0.2337,0.9612 0.4666,2.068 0.5177,2.4596 0.051,0.3916 0.3098,1.5712 0.575,2.6215 0.2653,1.0502 0.7125,2.9768 0.9937,4.2813 0.2813,1.3045 0.6861,3.1582 0.8997,4.1194 0.2135,0.9612 0.4388,2.0285 0.5007,2.3718 0.0618,0.3433 0.3336,1.5791 0.604,2.7463 0.2704,1.1672 0.7339,3.2456 1.03,4.6188 0.2961,1.3731 0.7757,3.3954 1.0657,4.4939 0.4342,1.6449 0.5436,2.9114 0.6201,7.1778 0.0899,5.0125 0.077,5.1805 -0.3971,5.1805 -1.2011,0 -2.1316,-0.3831 -3.187,-1.3121 -2.0112,-1.7703 -2.5333,-3.2358 -4.1135,-11.5456 -0.2873,-1.5105 -0.7427,-3.8973 -1.0121,-5.3041 -0.2694,-1.4068 -0.719,-3.7661 -0.9991,-5.2429 -0.2801,-1.4768 -0.7255,-3.7524 -0.9899,-5.0569 -0.7799,-3.8484 -1.2411,-6.2692 -1.4982,-7.8644 -0.1328,-0.8239 -0.3999,-2.2282 -0.5935,-3.1208 -0.1936,-0.8925 -0.5939,-2.9148 -0.8894,-4.4939 -0.4213,-2.2511 -0.8123,-3.4461 -1.8107,-5.5336l-1.2734 -2.6625 0.3065 -3.3294c0.2906,-3.1554 0.642,-6.7238 1.7665,-17.9347 0.2686,-2.6776 0.7216,-7.2839 1.0067,-10.2362 0.2851,-2.9523 0.7339,-7.4462 0.9974,-9.9865 0.2634,-2.5403 0.5463,-5.5022 0.6285,-6.5819l0.1495 -1.9631 -1.4002 -1.8281c-0.7701,-1.0055 -1.4854,-1.8634 -1.5895,-1.9066 -0.1041,-0.0432 -1.2725,-1.4267 -2.5964,-3.0745 -2.3767,-2.9581 -4.0389,-4.9948 -9.1699,-11.2359 -7.0815,-8.6137 -7.0484,-8.5668 -10.4637,-14.8415 -1.7973,-3.3021 -3.2678,-6.1256 -3.2678,-6.2745 0,-0.1489 -2.3874,-2.6171 -5.3053,-5.4849l-5.3053 -5.2142 -1.6686 -0.008 -1.6686 -0.008 -0.079 2.5092 -0.079 2.5092 0.8442 0.7988c0.4643,0.4394 1.3912,1.6278 2.0597,2.6409 1.0689,1.6198 1.2155,2.0014 1.2155,3.1624 0,0.7262 -0.0842,1.3607 -0.1872,1.4101 -0.103,0.0494 -1.0123,0.9427 -2.0208,1.9852 -1.7544,1.8136 -1.8352,1.9494 -1.8725,3.1456l-0.0389 1.2502 1.7477 0.1404c3.3144,0.2662 5.2323,1.3901 5.5328,3.2423 0.1775,1.0936 -0.1334,1.7339 -2.8512,5.8714l-1.9726 3.0031 1.8925 0.4261c2.0091,0.4524 6.6325,1.8062 7.2602,2.1258 0.206,0.1049 0.8239,0.3798 1.3731,0.6108 6.7198,2.8265 12.2072,7.8541 15.3244,14.0404 0.8685,1.7236 1.7733,3.9196 1.9197,4.6594 0.052,0.2629 0.2625,0.9931 0.4676,1.6228 0.2052,0.6297 0.4284,1.4819 0.496,1.8938 0.0676,0.4119 0.2941,1.7367 0.5033,2.944 0.637,3.6756 0.4673,16.2657 -0.2347,17.4014 -0.0722,0.1169 -0.1759,0.5303 -0.2304,0.9187 -0.0545,0.3884 -0.2903,1.3227 -0.524,2.0763 -0.2337,0.7536 -0.4733,1.6523 -0.5325,1.9973 -0.0592,0.345 -0.2699,1.0766 -0.4683,1.6259 -0.1984,0.5493 -0.407,1.2846 -0.4635,1.634 -0.0937,0.5796 -0.5496,2.2631 -1.5182,5.6062 -0.1989,0.6866 -0.4802,1.7851 -0.625,2.4412 -0.1449,0.6561 -0.6273,1.6762 -1.0722,2.2669 -0.4448,0.5907 -1.4493,1.9077 -2.2321,2.9266 -0.7828,1.0189 -3.0141,3.931 -4.9584,6.4713 -1.9443,2.5403 -4.3373,5.6651 -5.3176,6.9439 -0.9804,1.2788 -2.4004,3.1475 -3.1556,4.1528 -2.4678,3.2848 -3.1081,4.0486 -3.6174,4.315 -0.2761,0.1444 -2.0072,1.0209 -3.8468,1.9477l-3.3448 1.6851 -2.8968 -0.1466c-6.2312,-0.3154 -10.1056,-1.8039 -13.717,-5.2702 -1.6499,-1.5836 -3.066,-3.4757 -4.0331,-5.3888 -0.4967,-0.9826 -3.542,-5.6168 -10.9275,-16.6289 -1.1148,-1.6622 -2.2498,-3.6564 -2.5222,-4.4315 -0.2724,-0.7751 -0.4492,-1.4092 -0.3929,-1.4092 0.0563,0 -0.1095,-0.5898 -0.3686,-1.3107 -0.4574,-1.2726 -1.5469,-4.7747 -1.6587,-5.3314 -0.0305,-0.1516 -0.2853,-0.9942 -0.5664,-1.8725 -0.2811,-0.8782 -0.7422,-2.3187 -1.0245,-3.2011 -0.487,-1.5214 -0.5093,-2.0822 -0.4326,-10.8603 0.0637,-7.2842 0.1647,-9.6284 0.474,-11.0037 0.2161,-0.9612 0.4528,-2.197 0.5258,-2.7463 0.4256,-3.2009 3.3363,-9.3458 6.2406,-13.1747 3.2131,-4.2361 7.4833,-7.395 12.3934,-9.1681 2.0462,-0.7389 7.616,-1.9994 8.8349,-1.9994 0.3619,0 0.6579,-0.0648 0.6579,-0.1441 0,-0.0792 -0.8017,-1.5117 -1.7816,-3.1832 -0.9799,-1.6715 -2.046,-3.5312 -2.3693,-4.1327l-0.5877 -1.0935 0.5578 -1.2158 0.5578 -1.2158 3.0767 0c3.0745,0 3.0765,-0.0005 2.907,-0.5617 -0.2097,-0.6941 -1.7816,-5.3479 -2.735,-8.0972l-0.7084 -2.0429 1.3722 -1.7021c2.6768,-3.3203 3.211,-4.5666 2.6784,-6.2489 -0.2903,-0.917 -0.4284,-0.918 -3.5919,-0.0258 -1.7382,0.4902 -1.7703,0.5154 -5.9416,4.6549 -2.7307,2.71 -4.6572,4.8589 -5.5218,6.1593 -0.7303,1.0985 -2.5401,3.8511 -4.0218,6.1167 -1.4816,2.2657 -3.8392,5.8608 -5.2391,7.9892 -1.3998,2.1284 -3.7569,5.7235 -5.2379,7.9892 -6.3202,9.6688 -7.7054,11.7342 -7.87,11.7342 -0.0957,0 -0.4662,0.2708 -0.8234,0.6019 -0.3572,0.331 -1.6131,1.3544 -2.791,2.2741 -1.4807,1.1562 -2.1067,1.7987 -2.0289,2.082 0.062,0.2254 0.2875,2.2073 0.5011,4.4044 0.5343,5.4944 1.2965,13.4442 1.9031,19.8482 0.8049,8.4984 1.4395,14.9673 1.9846,20.2317 0.4987,4.8166 0.4991,4.9022 0.0304,6.8657 -0.2611,1.0936 -0.723,3.1118 -1.0266,4.4849 -0.3036,1.3731 -0.7667,3.3773 -1.0292,4.4537 -0.2625,1.0764 -0.5168,2.256 -0.5651,2.6215 -0.0483,0.3654 -0.262,1.3947 -0.4747,2.2872 -0.2128,0.8925 -0.6311,2.7463 -0.9296,4.1194 -0.2985,1.3731 -0.7456,3.3954 -0.9936,4.4939 -0.7027,3.1121 -1.4599,6.5204 -2.0246,9.1127 -0.2841,1.3045 -0.7281,3.2199 -0.9867,4.2564 -0.2585,1.0365 -0.5213,2.2847 -0.5839,2.7737 -0.0626,0.489 -0.3006,1.607 -0.5288,2.4845 -0.2282,0.8775 -0.4568,1.9204 -0.5079,2.3176 -0.223,1.7335 -0.9694,3.6421 -2.0363,5.2072l-1.1488 1.6852 -1.8317 0 -1.8317 0 0 -1.0611 0.0004 -0.0002zm45.1435 -172.268c-0.0513,-0.361 -0.2805,-0.5903 -0.6415,-0.6415 -0.486,-0.069 -0.5617,-0.2289 -0.5617,-1.1859 0,-1.067 -0.027,-1.1061 -0.7627,-1.1061 -0.7541,0 -0.7618,0.0132 -0.6866,1.1859 0.0697,1.086 0.1339,1.1926 0.7627,1.2649 0.485,0.0558 0.6866,0.2207 0.6866,0.5617 0,0.352 0.1738,0.4828 0.6415,0.4828 0.5225,0 0.6267,-0.1042 0.5617,-0.5617l0 -0.0001zm28.0073 0.0798c0,-0.3097 0.2007,-0.5105 0.5617,-0.5617 0.8196,-0.1164 0.8452,-1.2033 0.0283,-1.2033 -0.4236,0 -0.5901,0.1408 -0.5901,0.4993 0,0.3662 -0.1664,0.4993 -0.6242,0.4993 -0.4993,0 -0.6242,0.1249 -0.6242,0.6242 0,0.4993 0.1248,0.6242 0.6242,0.6242 0.4502,0 0.6242,-0.1343 0.6242,-0.482l0.0001 0z" inkscape:connector-curvature="0"/>
 </g>
</svg>
