<?xml version="1.0" encoding="UTF-8" standalone="no"?>
<!-- Created with Inkscape (http://www.inkscape.org/) -->

<svg
   xmlns:dc="http://purl.org/dc/elements/1.1/"
   xmlns:cc="http://creativecommons.org/ns#"
   xmlns:rdf="http://www.w3.org/1999/02/22-rdf-syntax-ns#"
   xmlns:svg="http://www.w3.org/2000/svg"
   xmlns="http://www.w3.org/2000/svg"
   xmlns:sodipodi="http://sodipodi.sourceforge.net/DTD/sodipodi-0.dtd"
   xmlns:inkscape="http://www.inkscape.org/namespaces/inkscape"
   width="744.09448819"
   height="1052.3622047"
   id="svg4081"
   version="1.1"
   inkscape:version="0.48.4 r9939"
   sodipodi:docname="ant_logo_final.svg">
  <defs
     id="defs4083" />
  <sodipodi:namedview
     id="base"
     pagecolor="#ffffff"
     bordercolor="#666666"
     borderopacity="1.0"
     inkscape:pageopacity="0.0"
     inkscape:pageshadow="2"
     inkscape:zoom="0.24748737"
     inkscape:cx="759.63477"
     inkscape:cy="893.7544"
     inkscape:document-units="px"
     inkscape:current-layer="layer1"
     showgrid="false"
     inkscape:window-width="1366"
     inkscape:window-height="719"
     inkscape:window-x="0"
     inkscape:window-y="25"
     inkscape:window-maximized="1" />
  <metadata
     id="metadata4086">
    <rdf:RDF>
      <cc:Work
         rdf:about="">
        <dc:format>image/svg+xml</dc:format>
        <dc:type
           rdf:resource="http://purl.org/dc/dcmitype/StillImage" />
        <dc:title></dc:title>
      </cc:Work>
    </rdf:RDF>
  </metadata>
  <g
     inkscape:label="Layer 1"
     inkscape:groupmode="layer"
     id="layer1">
    <rect
       style="fill:#f2f2f2;fill-opacity:1"
       id="rect2987"
       width="3316.853"
       height="2060.7112"
       x="-347.49252"
       y="-656.81592" />
    <rect
       style="fill:#004a80;fill-opacity:1"
       id="rect2989"
       width="3317.3411"
       height="230.31477"
       x="-347.49249"
       y="-656.81592" />
    <text
       xml:space="preserve"
       style="font-size:106.702034px;font-style:normal;font-weight:normal;line-height:125%;letter-spacing:0px;word-spacing:0px;fill:#ffffff;fill-opacity:1;stroke:none;font-family:Sans"
       x="141.00192"
       y="-504.15305"
       id="text3035-4-6-1"
       sodipodi:linespacing="125%"><tspan
         sodipodi:role="line"
         id="tspan3037-0-0-4"
         x="141.00192"
         y="-504.15305"
         style="font-style:normal;font-variant:normal;font-weight:normal;font-stretch:normal;fill:#ffffff;fill-opacity:1;font-family:Ubuntu;-inkscape-font-specification:Ubuntu">інструмент  ўдзелу</tspan></text>
    <path
       style="fill:#ffffff;fill-opacity:1;stroke:none"
       d="m 73.69124,-585.44851 c -9.633342,0 -18.617795,2.77567 -26.199236,7.56978 0.367679,0.27877 0.730502,0.54624 1.110251,0.80867 1.419496,0.98099 4.712495,3.06334 5.968979,3.77495 0.215044,0.12177 1.056454,0.88547 1.872547,1.6969 l 1.484848,1.47485 0.497133,-0.0762 c 1.622545,-0.25351 2.083469,-0.29023 3.685407,-0.29166 1.596418,-10e-4 2.39264,0.0575 3.944019,0.29498 l 0.503756,0.0795 2.097967,-2.08799 c 1.239042,-1.23268 2.197761,-2.12219 2.346496,-2.17415 0.138359,-0.0484 0.450404,-0.16619 0.692605,-0.26183 0.242347,-0.0956 0.622612,-0.24609 0.845162,-0.33143 0.742498,-0.28464 2.728086,-1.46352 3.705351,-2.20066 0.531208,-0.40068 1.344136,-1.11922 1.806311,-1.59748 0.783343,-0.81075 0.913679,-0.99727 1.915599,-2.75747 0.59104,-1.03834 1.109442,-1.94585 1.150066,-2.01507 0.04048,-0.0693 0.280323,-0.48731 0.533562,-0.92799 0.06918,-0.12017 0.12673,-0.21786 0.178983,-0.30491 -2.647647,-0.44188 -5.36668,-0.6728 -8.139806,-0.6728 z m 9.349557,0.88823 c -0.649474,1.36007 -1.627917,3.31219 -2.124461,4.20579 -0.320579,0.57687 -0.624893,1.12404 -0.676115,1.21634 -0.623569,1.12333 -1.77209,2.47575 -2.104517,2.47575 -0.159186,0 -0.374524,0.11162 -1.382111,0.71588 -0.39226,0.23527 -1.186274,0.70769 -1.763184,1.04731 -0.985876,0.58044 -2.4039,1.42254 -2.684517,1.59415 -0.06918,0.0423 -0.332796,0.19458 -0.586624,0.34138 -0.409997,0.23709 -3.528727,3.11824 -3.523061,3.2546 0,0.0522 0.479691,0.416 1.557708,1.18651 0.290552,0.20767 0.729472,0.53143 0.974395,0.71919 0.24485,0.18775 0.881449,0.666 1.415158,1.06388 l 0.971083,0.72251 0.29828,0.69931 c 0.979621,2.27524 1.231683,4.22873 0.855098,6.65503 -0.07139,0.46148 -0.146306,0.95194 -0.165735,1.09039 -0.01913,0.13844 -0.09531,0.45874 -0.169048,0.71257 -0.07367,0.25382 -0.148735,0.53226 -0.165661,0.61977 -0.133281,0.68756 -0.57691,1.31562 -1.836117,2.60501 -0.854881,0.87536 -1.808154,1.62424 -2.53873,1.98855 -0.534593,0.26662 -0.616504,0.28264 -1.365478,0.27177 -0.438404,-0.007 -1.192088,-0.0923 -1.673693,-0.18891 -0.481604,-0.0966 -0.893956,-0.15666 -0.914783,-0.13588 -0.05299,0.0531 0.166103,0.36666 0.493895,0.71256 0.413676,0.43663 1.299242,1.68416 1.590825,2.24044 0.140639,0.26834 0.259642,0.60064 0.265162,0.73908 0.01546,0.39336 -0.161835,2.7311 -0.304977,4.0202 -0.07139,0.64191 -0.11444,1.18145 -0.09604,1.19977 0.0184,0.0183 0.26288,-0.27953 0.543497,-0.66286 0.280617,-0.38334 0.563148,-0.75604 0.626439,-0.82525 0.06329,-0.0693 0.272007,-0.3495 0.463942,-0.6264 0.191935,-0.27689 0.433105,-0.61753 0.536948,-0.75565 0.262218,-0.34886 1.505234,-2.0548 1.683631,-2.31003 0.08059,-0.11539 0.369078,-0.5091 0.642998,-0.87828 0.273846,-0.3692 0.651461,-0.88936 0.838466,-1.15337 0.321609,-0.45394 0.5368,-0.63432 1.846052,-1.53782 0.299972,-0.207 0.726822,-0.50425 0.947901,-0.66285 0.456508,-0.32749 0.478439,-0.32576 1.179871,0.14583 0.408452,0.27463 0.509792,0.31021 0.59656,0.21542 0.0574,-0.0627 0.482119,-0.52972 0.944516,-1.03736 0.462469,-0.50764 0.96755,-1.05544 1.123571,-1.21964 0.156021,-0.16419 0.637037,-0.69862 1.067198,-1.18651 0.510675,-0.57928 0.888805,-0.93012 1.090381,-1.01416 0.561602,-0.23409 2.087737,-0.81531 2.14102,-0.81531 0.0287,0 0.270166,-0.10028 0.536948,-0.22205 0.880046,-0.4018 2.080009,-1.42361 2.823685,-2.40285 0.262144,-0.34507 0.862677,-1.54583 0.934657,-1.86924 0.0552,-0.24705 0.27995,-0.97538 0.54357,-1.75656 0.0778,-0.23073 0.22711,-0.70451 0.3314,-1.05062 0.10428,-0.34612 0.25706,-0.83658 0.33802,-1.09039 0.081,-0.25381 0.23337,-0.74428 0.33809,-1.0904 0.10473,-0.34611 0.23595,-0.77984 0.29497,-0.96445 0.29055,-0.90892 0.91103,-2.90657 1.26274,-4.06991 0.37879,-1.25301 0.40801,-1.31621 0.8219,-1.73667 l 0.43083,-0.43748 0.4044,0.17897 c 0.3824,0.1673 0.40418,0.19307 0.35789,0.43748 -0.0958,0.50617 -0.11716,0.60082 -0.25846,1.1401 -0.0786,0.29998 -0.15462,0.62028 -0.16574,0.71257 -0.011,0.0923 -0.0786,0.3759 -0.15249,0.62971 -0.0738,0.25382 -0.15484,0.57412 -0.17898,0.71257 -0.0243,0.13844 -0.098,0.47876 -0.16566,0.75565 -0.0677,0.27689 -0.20415,0.84075 -0.30159,1.25611 -0.0975,0.41532 -0.25162,1.04057 -0.34472,1.38867 -0.093,0.34811 -0.18259,0.72512 -0.19554,0.83851 -0.0125,0.11338 -0.0832,0.42025 -0.15911,0.67942 -0.0758,0.25917 -0.15485,0.59948 -0.1756,0.75565 -0.0707,0.53451 -0.38851,1.40424 -0.90146,2.47907 -0.28224,0.59128 -0.72962,1.52758 -0.99427,2.08136 -0.26464,0.55378 -0.56668,1.20535 -0.66949,1.44501 -0.15904,0.37043 -0.28282,0.50053 -0.828604,0.87497 -0.353108,0.24225 -0.65963,0.46438 -0.682739,0.49383 -0.02281,0.0294 -0.340891,0.25698 -0.705921,0.50707 -0.36503,0.25011 -0.912207,0.63288 -1.216375,0.84846 -0.304093,0.21558 -0.761338,0.53469 -1.014136,0.70925 -0.252725,0.17455 -0.516341,0.36456 -0.586624,0.42422 -0.125921,0.10691 -0.268474,0.20874 -1.680317,1.19645 -0.39226,0.27443 -0.976161,0.68951 -1.299169,0.92137 -0.323081,0.23186 -0.833534,0.58776 -1.133507,0.79211 -0.850682,0.57952 -0.890497,0.63494 -1.09038,1.49804 l -0.178983,0.77886 -0.593247,0.50376 c -0.325584,0.27689 -1.067935,0.91106 -1.650511,1.40856 -0.582576,0.49749 -1.494269,1.27043 -2.024961,1.71679 -0.530766,0.44638 -1.134684,0.96714 -1.342295,1.15999 -0.207685,0.19285 -0.831622,0.72794 -1.385353,1.18982 -1.386599,1.15649 -1.709386,1.48272 -2.164275,2.1609 -0.216663,0.32305 -0.581988,0.85021 -0.811972,1.17325 -0.685388,0.96272 -0.676262,0.89735 -0.202165,1.40524 1.156027,1.23836 1.631082,1.47971 4.941527,2.50559 0.323081,0.1001 0.796811,0.25171 1.050639,0.33474 0.438846,0.14357 3.114532,0.98842 4.278728,1.35221 0.299972,0.0937 0.753758,0.23829 1.007513,0.32149 0.253828,0.0832 0.971157,0.31111 1.59421,0.50377 1.439735,0.44521 2.1146,0.65956 2.641465,0.8385 0.230719,0.0784 0.777897,0.25618 1.216301,0.3944 l 0.798724,0.24857 0.447457,0.7888 c 0.246616,0.43349 0.543939,0.97895 0.662868,1.2097 0.853773,1.65684 2.586782,4.29196 4.049992,6.16452 0.43841,0.56108 0.95909,1.23245 1.15669,1.49474 0.1976,0.26227 0.97977,1.14355 1.74,1.95541 1.56618,1.67258 0.96358,1.27107 5.07415,3.36729 1.03834,0.52951 3.1703,1.62024 4.73935,2.42273 4.15935,2.12724 6.30376,3.21519 6.94337,3.52969 l 0.56344,0.27839 0,1.02742 c 0,0.56533 -0.01,1.02742 -0.0265,1.02742 -0.039,0 -3.18231,-1.5205 -5.88619,-2.85026 -2.45586,-1.2078 -4.81589,-2.35511 -7.78514,-3.78488 l -2.24707,-1.08377 -0.81529,0 -0.81535,-0.003 -0.26848,-0.3944 c -0.14807,-0.21838 -0.37798,-0.54786 -0.51038,-0.73246 -0.23572,-0.32856 -0.84015,-1.18612 -1.77312,-2.50889 -0.25669,-0.36392 -0.56704,-0.79765 -0.68605,-0.96445 -0.31417,-0.44042 -1.21505,-1.72288 -1.69025,-2.40284 -0.22579,-0.32304 -0.585886,-0.83739 -0.802034,-1.14342 -1.272969,-1.80199 -1.534893,-2.17275 -2.025034,-2.87015 -0.515679,-0.73365 -0.893588,-1.2653 -1.557708,-2.19404 -0.164999,-0.23075 -0.350532,-0.49187 -0.410953,-0.57999 -0.103548,-0.15098 -0.120916,-0.15109 -0.308289,-0.0199 -0.296366,0.20757 -1.797258,0.18821 -2.747514,-0.0331 -1.336114,-0.31124 -1.98051,-0.52601 -2.952992,-0.98766 -0.530692,-0.25193 -1.191279,-0.5602 -1.468216,-0.68605 -0.480574,-0.2184 -1.154849,-0.54097 -3.619171,-1.72672 -0.606348,-0.29176 -1.590829,-0.75763 -2.187389,-1.03738 l -1.083757,-0.51039 -0.811971,0 c -0.446868,0 -0.815357,0.0222 -0.815357,0.0497 0,0.0443 0.572641,1.42888 1.020834,2.46912 0.08942,0.20767 0.381368,0.6047 0.649547,0.8816 0.268253,0.27687 1.030401,1.10766 1.693564,1.84604 0.66324,0.73838 1.494346,1.64258 1.846056,2.01176 0.351709,0.36919 1.217552,1.31341 1.925607,2.09793 0.708056,0.78453 1.760388,1.92531 2.336562,2.53541 0.711514,0.75342 1.078163,1.21303 1.146754,1.42844 0.0552,0.17444 0.188182,0.59845 0.291656,0.94457 0.103401,0.34611 0.252504,0.83657 0.334709,1.09039 0.586403,1.81102 0.586109,1.78451 0.341406,4.21905 -0.08927,0.88731 -0.184281,1.99106 -0.212173,2.45256 -0.02797,0.46147 -0.104579,1.34898 -0.168974,1.97198 -0.06476,0.62301 -0.136518,1.49447 -0.162424,1.93553 -0.02576,0.44106 -0.104799,1.34524 -0.172359,2.01175 -0.243819,2.40639 -0.311527,3.99136 -0.195541,4.57037 0.02797,0.13845 0.13247,0.60889 0.232044,1.04731 0.0995,0.4384 0.256037,1.13575 0.347956,1.55108 0.09192,0.41534 0.228439,1.00253 0.301592,1.3025 0.07359,0.29996 0.143068,0.6403 0.1558,0.75565 0.01251,0.11538 0.08714,0.47237 0.165736,0.79543 0.07853,0.32303 0.155137,0.69697 0.172285,0.82856 0.01693,0.1316 0.106418,0.52532 0.195541,0.87828 0.0892,0.35296 0.236902,1.00328 0.331471,1.4417 0.0945,0.43841 0.233149,1.05901 0.304904,1.38205 0.07212,0.32303 0.144908,0.68335 0.165661,0.79874 0.02061,0.11536 0.114661,0.5291 0.205551,0.92136 0.09082,0.39227 0.245144,1.0929 0.344644,1.55439 0.09722,0.45073 0.250002,1.1004 0.34803,1.47484 -0.756481,0.11628 -1.519438,0.21367 -2.286885,0.29497 -0.02797,-0.14365 -0.05299,-0.26961 -0.08279,-0.42754 -0.09656,-0.50763 -0.247573,-1.31028 -0.338094,-1.78307 -0.09052,-0.47279 -0.240582,-1.26685 -0.33471,-1.76318 -0.09413,-0.49634 -0.245953,-1.26182 -0.334782,-1.70022 -0.262145,-1.29337 -0.417356,-2.10536 -0.503757,-2.64146 -0.04489,-0.2769 -0.133795,-0.75066 -0.198853,-1.05063 -0.06476,-0.29996 -0.199,-0.97728 -0.29828,-1.50799 -0.141596,-0.75656 -0.274287,-1.15772 -0.60988,-1.85929 l -0.427512,-0.89486 0.102739,-1.12022 c 0.09766,-1.06047 0.215411,-2.26088 0.593321,-6.02864 0.09023,-0.8999 0.2422,-2.448 0.338021,-3.4402 0.09582,-0.99221 0.249486,-2.5003 0.338021,-3.35404 0.08853,-0.85376 0.18119,-1.85105 0.208788,-2.21392 l 0.05004,-0.65954 -0.470639,-0.61314 c -0.258833,-0.33792 -0.498605,-0.62845 -0.533563,-0.64297 -0.03533,-0.0145 -0.426702,-0.47694 -0.871656,-1.03073 -0.798798,-0.99415 -1.357824,-1.68074 -3.082298,-3.77826 -2.379912,-2.89489 -2.368578,-2.87916 -3.516436,-4.98796 -0.603993,-1.10977 -1.097004,-2.05784 -1.097004,-2.10787 0,-0.05 -0.802405,-0.87892 -1.783055,-1.84273 l -1.783129,-1.75325 -0.560056,-0.003 -0.563442,0 -0.02649,0.84183 -0.02649,0.84182 0.285106,0.26845 c 0.156021,0.14766 0.467916,0.54773 0.692674,0.88822 0.359217,0.54437 0.407642,0.67371 0.407642,1.06388 0,0.24406 -0.0287,0.45735 -0.06329,0.47394 -0.03459,0.0166 -0.340524,0.31582 -0.679428,0.66617 -0.589568,0.60951 -0.617166,0.65521 -0.629677,1.05725 l -0.01325,0.42091 0.59001,0.0464 c 1.113857,0.0895 1.758253,0.46791 1.859299,1.09039 0.05961,0.36755 -0.04784,0.58143 -0.961148,1.97199 l -0.662869,1.01084 0.636374,0.14252 c 0.675159,0.15202 2.231616,0.60845 2.442538,0.71588 0.06918,0.0352 0.276128,0.12784 0.460704,0.20548 2.258403,0.94993 4.102766,2.63711 5.150388,4.71619 0.291877,0.5793 0.593763,1.31904 0.642998,1.56765 0.01766,0.0883 0.09008,0.33193 0.159038,0.54354 0.06918,0.21163 0.142995,0.4979 0.165736,0.63634 0.02281,0.13845 0.09869,0.58524 0.169047,0.99096 0.214087,1.23531 0.156315,5.46799 -0.07956,5.84967 -0.02429,0.0393 -0.05814,0.17769 -0.07624,0.30823 -0.0184,0.13054 -0.09714,0.44275 -0.175671,0.696 -0.07853,0.25325 -0.159112,0.55687 -0.178983,0.67279 -0.01987,0.11594 -0.09236,0.36226 -0.159038,0.54686 -0.06697,0.18459 -0.136813,0.4294 -0.1558,0.54685 -0.03165,0.1948 -0.18487,0.76226 -0.51038,1.88581 -0.06697,0.23074 -0.160142,0.59814 -0.208788,0.81863 -0.04857,0.22049 -0.211733,0.56374 -0.361277,0.76228 -0.149471,0.19852 -0.485947,0.64189 -0.748975,0.98433 -0.263105,0.34244 -1.013698,1.3204 -1.667146,2.17416 -0.653448,0.85375 -1.456883,1.90345 -1.786367,2.33323 -0.329484,0.42979 -0.806746,1.06078 -1.060574,1.39862 -0.82934,1.10395 -1.045194,1.3588 -1.216302,1.44834 -0.0928,0.0486 -0.674349,0.34475 -1.292545,0.65622 l -1.123572,0.56342 -0.974395,-0.0464 c -2.09414,-0.10599 -3.3964,-0.60819 -4.610125,-1.77314 -0.554537,-0.5322 -1.030475,-1.16663 -1.355543,-1.80958 -0.166913,-0.33024 -1.190101,-1.8869 -3.67216,-5.58784 -0.374744,-0.55864 -0.756922,-1.23094 -0.848474,-1.49142 -0.09155,-0.2605 -0.14822,-0.47395 -0.129306,-0.47395 0.01914,0 -0.039,-0.1985 -0.125921,-0.44079 -0.153666,-0.42769 -0.519211,-1.60261 -0.556818,-1.7897 -0.0103,-0.0509 -0.09773,-0.33454 -0.192156,-0.62971 -0.0945,-0.29515 -0.246469,-0.78059 -0.341406,-1.07713 -0.163675,-0.51132 -0.171623,-0.69887 -0.145865,-3.64901 0.02134,-2.44809 0.0552,-3.23649 0.159112,-3.69871 0.07286,-0.32304 0.15109,-0.73677 0.175671,-0.92137 0.143068,-1.07575 1.121879,-3.14103 2.097893,-4.42785 1.07993,-1.42367 2.515912,-2.48638 4.166054,-3.08226 0.68767,-0.24834 2.559922,-0.67279 2.96955,-0.67279 0.121653,0 0.218798,-0.0197 0.218798,-0.0464 0,-0.0266 -0.267297,-0.50875 -0.596633,-1.07051 -0.329264,-0.56175 -0.690025,-1.18654 -0.798651,-1.38868 l -0.195615,-0.36788 0.185606,-0.40765 0.188918,-0.41097 1.03408,0 c 1.033271,0 1.03467,-1.1e-4 0.977707,-0.18892 -0.07065,-0.23329 -0.600975,-1.79704 -0.921407,-2.721 l -0.238594,-0.68606 0.464015,-0.57005 c 0.899623,-1.11588 1.077134,-1.53583 0.898151,-2.10124 -0.09759,-0.30818 -0.143215,-0.30978 -1.206439,-0.01 -0.584122,0.16475 -0.593248,0.17312 -1.995155,1.56433 -0.917728,0.91077 -1.565362,1.63434 -1.855988,2.07141 -0.245438,0.36918 -0.854214,1.29338 -1.352157,2.05484 -0.498016,0.76144 -1.292766,1.96925 -1.763258,2.68456 -0.470418,0.71531 -1.262077,1.92309 -1.759872,2.68455 -2.124093,3.24947 -2.589507,3.94397 -2.644776,3.94397 -0.03238,0 -0.154991,0.0909 -0.275098,0.20217 -0.120033,0.11125 -0.542099,0.45649 -0.937892,0.76559 -0.497648,0.38858 -0.708938,0.6041 -0.682739,0.69931 0.02061,0.0757 0.09722,0.74309 0.169048,1.48148 0.179497,1.84653 0.435754,4.51604 0.639612,6.66829 0.270534,2.85614 0.482929,5.0316 0.66618,6.80086 0.167575,1.61877 0.167502,1.64684 0.0103,2.30673 -0.08772,0.36753 -0.242642,1.04651 -0.344644,1.50799 -0.102002,0.46149 -0.256478,1.13629 -0.344718,1.49805 -0.08824,0.36173 -0.175965,0.75546 -0.19223,0.87828 -0.01619,0.12281 -0.08758,0.46894 -0.159112,0.7689 -0.0287,0.12102 -0.07514,0.31604 -0.119297,0.5104 -0.673245,-0.44573 -1.335745,-0.90785 -1.98522,-1.38536 0.0574,-0.30607 0.111865,-0.64011 0.152489,-0.92799 0.200178,-1.41865 0.429131,-3.05737 0.636301,-4.57368 0.09773,-0.7153 0.249707,-1.77157 0.33802,-2.34981 0.157125,-1.02826 0.155874,-1.06808 0,-1.76319 -0.998975,-4.55077 -1.378209,-9.67115 -0.937965,-12.66379 l 0.192229,-1.29919 1.508031,-2.01507 c 0.829193,-1.10921 1.551894,-2.07511 1.607384,-2.14433 0.05593,-0.0693 0.550563,-0.72984 1.100316,-1.46822 0.549753,-0.73838 1.024366,-1.36228 1.053951,-1.38536 0.02944,-0.0231 0.264426,-0.32337 0.520315,-0.66948 0.256037,-0.34612 1.460121,-1.62968 2.677968,-2.85358 1.758253,-1.76703 2.25259,-2.31304 2.396247,-2.64478 0.278482,-0.64341 0.61643,-1.47343 0.61643,-1.51462 0,-0.0511 -1.01502,0.0339 -2.266941,0.18892 -0.723216,0.0896 -1.164858,0.18939 -1.425163,0.32148 -0.207685,0.10535 -0.848254,0.41911 -1.425163,0.69599 -0.576836,0.27689 -1.617761,0.77531 -2.309994,1.11028 -3.52784,1.70707 -5.166796,2.46012 -5.660765,2.59838 -1.226825,0.34338 -2.492582,0.35313 -2.996117,0.0232 -0.242643,-0.15902 -0.09523,-0.32775 -1.494711,1.73999 -0.577866,0.85374 -1.52562,2.24839 -2.104517,3.10214 -1.382846,2.03934 -2.438563,3.60612 -2.817135,4.17929 -0.168311,0.25479 -0.346999,0.52333 -0.39778,0.59657 -0.86702,1.25214 -1.529521,2.22412 -1.729993,2.5354 -0.137475,0.21342 -0.437742,0.67293 -0.66618,1.0208 l -0.414265,0.63303 -0.845163,0.0961 c -0.38571,0.0435 -0.699813,0.0797 -0.98433,0.116 -0.346632,-0.76456 -0.676336,-1.53838 -0.984331,-2.32329 0.601049,-0.29962 1.069186,-0.53767 1.083757,-0.55679 0.03901,-0.0511 0.255816,-0.17932 1.279299,-0.75566 0.341774,-0.19241 0.521125,-0.40774 1.249492,-1.51793 0.467107,-0.71201 1.008985,-1.53944 1.206366,-1.83941 0.323376,-0.49142 1.748318,-2.66887 3.21153,-4.90842 0.301518,-0.46149 0.771274,-1.17408 1.040704,-1.58091 0.269357,-0.40683 0.487198,-0.75187 0.487198,-0.76891 0,-0.017 0.227849,-0.36966 0.503756,-0.78216 0.430309,-0.64331 0.547177,-0.76196 0.818595,-0.8352 0.174052,-0.047 0.48499,-0.14465 0.692674,-0.21874 0.423023,-0.15093 2.348189,-0.7827 5.538156,-1.81621 1.176781,-0.38129 2.911778,-0.94887 3.857766,-1.25942 4.036674,-1.32515 5.343497,-1.7471 5.561338,-1.79633 0.127319,-0.0288 0.625776,-0.41377 1.110325,-0.8584 l 0.881592,-0.80867 0,-0.47063 0,-0.47394 -4.010254,-4.00363 c -2.205637,-2.20249 -4.053602,-4.00362 -4.106369,-4.00362 -0.05299,0 -0.547251,-0.26359 -1.10039,-0.58663 -0.553065,-0.32303 -1.048358,-0.58994 -1.097004,-0.58994 -0.214161,0 -0.446426,-0.72336 -0.639612,-1.99187 -0.03017,-0.19613 -0.08081,-0.35794 -0.112674,-0.35794 -0.07139,0 -1.522161,-0.85563 -1.981981,-1.16993 -0.184871,-0.12639 -0.768477,-0.49179 -1.299169,-0.80869 -0.530693,-0.31689 -1.004496,-0.60534 -1.05064,-0.64296 -0.07867,-0.0642 -1.021864,-0.64713 -1.753249,-1.08376 -0.179424,-0.10713 -0.499708,-0.30758 -0.712544,-0.44412 -0.212837,-0.13652 -0.461219,-0.29132 -0.553507,-0.34468 -0.947459,-0.54783 -1.195695,-0.74707 -1.630566,-1.32239 -0.257288,-0.34034 -0.808145,-1.06889 -1.22631,-1.61736 -0.759425,-0.99602 -0.831033,-1.14054 -1.252805,-2.51552 -0.07212,-0.2347 -0.147484,-0.50215 -0.165662,-0.59657 -0.0184,-0.0944 -0.185753,-0.67895 -0.374524,-1.29588 -0.101781,-0.33258 -0.195762,-0.63868 -0.291656,-0.9545 0.576689,-0.84335 1.179357,-1.66805 1.806237,-2.47244 0.08993,0.24629 0.155801,0.44967 0.155801,0.49382 0,0.0564 0.06256,0.22351 0.139167,0.3712 0.07661,0.1477 0.168385,0.38191 0.205551,0.52034 0.0368,0.13846 0.165588,0.51546 0.281647,0.83851 0.116059,0.32303 0.600681,1.75771 1.080519,3.18831 l 0.874895,2.60171 0.576689,0.31816 c 0.57816,0.32052 1.501628,0.81165 3.304332,1.75987 0.530693,0.27916 1.076324,0.57664 1.21299,0.65955 0.136739,0.0829 1.166257,1.065 2.290196,2.18078 l 2.044905,2.02832 0.407642,-0.40433 c 0.443409,-0.43678 0.418607,-0.43842 0.881592,-0.0133 0.09288,0.0853 0.392555,0.32846 0.669492,0.54022 0.276864,0.21176 0.713943,0.56209 0.967772,0.77554 0.253754,0.21345 0.704228,0.57163 1.004201,0.79874 0.84553,0.64015 0.974542,0.77112 1.534525,1.57427 0.287903,0.41302 0.637036,0.91361 0.775468,1.11028 0.138506,0.19667 0.4373,0.63453 0.66618,0.97439 0.228954,0.33985 0.43708,0.63647 0.464015,0.65954 0.02723,0.023 0.200988,0.26996 0.38446,0.54685 0.522523,0.78858 0.998166,1.4005 1.335672,1.7201 l 0.308215,0.29166 -0.04636,-0.37783 c -0.02649,-0.20766 -0.105093,-0.79155 -0.172359,-1.29918 -0.196204,-1.4803 -0.228806,-2.22478 -0.132618,-2.89667 0.172065,-1.20102 0.281059,-1.43891 1.057263,-2.3233 0.97285,-1.10841 1.734924,-2.03827 1.673693,-2.03827 -0.02797,0 -0.133059,0.0535 -0.235283,0.11931 -0.527748,0.33962 -1.262739,0.50387 -2.283499,0.50709 -1.166404,0.004 -1.768189,-0.15378 -2.896691,-0.74571 -0.61253,-0.32131 -0.733299,-0.42614 -1.365478,-1.22628 -0.381074,-0.48227 -0.831548,-1.07347 -1.000889,-1.31245 -0.307332,-0.43349 -1.059103,-1.80297 -1.12026,-2.04158 -0.01766,-0.0692 -0.110098,-0.35282 -0.208789,-0.62971 -0.164116,-0.4605 -0.182073,-0.68294 -0.188918,-2.60169 -0.0074,-2.04302 0,-2.11599 0.218724,-2.86684 0.124522,-0.42403 0.228733,-0.84001 0.228733,-0.92468 0,-0.12883 0.267738,-0.90943 0.543497,-1.57759 0.03827,-0.0923 0.07359,-0.18572 0.07956,-0.2088 0.112379,-0.41464 0.138579,-0.43555 3.35401,-2.83369 0.696648,-0.51959 1.362534,-1.03865 1.481463,-1.15336 l 0.215485,-0.2088 -0.185606,-0.55348 c -0.102444,-0.30447 -0.218871,-0.58341 -0.258538,-0.62309 -0.07139,-0.0713 -0.55152,-0.35054 -1.120187,-0.64959 -0.493085,-0.2593 -3.092306,-1.77803 -4.026813,-2.35313 -0.484621,-0.29816 -1.015093,-0.62271 -1.176633,-0.71919 -0.444071,-0.26527 -1.120334,-0.70438 -1.229549,-0.79874 -0.05299,-0.0461 -0.296881,-0.20733 -0.543571,-0.35794 -0.246616,-0.15062 -0.495219,-0.32125 -0.553433,-0.37782 -0.05814,-0.0566 -0.418607,-0.3306 -0.798724,-0.60983 -0.02134,-0.0154 -0.03974,-0.0312 -0.05961,-0.0464 -12.897562,8.84566 -21.357063,23.69268 -21.357063,40.51352 0,27.11107 21.976363,49.08753 49.087513,49.08753 27.111069,0 49.090809,-21.97646 49.090809,-49.08753 0,-23.91419 -17.10159,-43.83723 -39.741326,-48.20261 z m -26.179366,41.46141 c -0.16993,0.006 -0.167943,0.0529 -0.145865,0.3977 0.02355,0.36499 0.04416,0.39992 0.255227,0.42423 0.163012,0.0188 0.231971,0.0743 0.231971,0.18891 0,0.1183 0.05814,0.1624 0.215412,0.1624 0.175597,0 0.210775,-0.0352 0.188991,-0.18891 -0.01693,-0.12133 -0.09413,-0.19819 -0.215485,-0.21543 -0.163307,-0.0232 -0.188918,-0.0761 -0.188918,-0.39771 0,-0.35859 -0.01104,-0.37119 -0.258465,-0.37119 -0.03165,0 -0.05888,-7.4e-4 -0.08287,0 z m 10.307319,0.41759 c -0.106197,0.011 -0.149103,0.0636 -0.149103,0.16903 0,0.12307 -0.0552,0.16902 -0.208788,0.16902 -0.16787,0 -0.212174,0.041 -0.212174,0.2088 0,0.16782 0.04416,0.2088 0.212174,0.2088 0.151311,0 0.208788,-0.0455 0.208788,-0.1624 0,-0.10409 0.06771,-0.17167 0.188918,-0.18891 0.275392,-0.0392 0.284444,-0.40434 0.0103,-0.40434 -0.01766,0 -0.03459,-10e-4 -0.05004,0 z"
       id="path4615"
       inkscape:connector-curvature="0" />
    <text
       xml:space="preserve"
       style="font-size:40px;font-style:normal;font-weight:normal;line-height:125%;letter-spacing:0px;word-spacing:0px;fill:#000000;fill-opacity:1;stroke:none;font-family:Sans"
       x="32.324905"
       y="-369.93265"
       id="text2991"
       sodipodi:linespacing="125%"><tspan
         sodipodi:role="line"
         id="tspan2993"
         x="32.324905"
         y="-369.93265">пра праект</tspan></text>
    <text
       xml:space="preserve"
       style="font-size:40px;font-style:normal;font-weight:normal;line-height:125%;letter-spacing:0px;word-spacing:0px;fill:#000000;fill-opacity:1;stroke:none;font-family:Sans"
       x="351.53314"
       y="-369.93262"
       id="text2995"
       sodipodi:linespacing="125%"><tspan
         sodipodi:role="line"
         id="tspan2997"
         x="351.53314"
         y="-369.93262">еще пункт</tspan></text>
    <text
       xml:space="preserve"
       style="font-size:50.52151108000000335px;font-style:normal;font-weight:normal;line-height:125%;letter-spacing:0px;word-spacing:0px;fill:#b3b3b3;fill-opacity:1;stroke:none;font-family:Sans"
       x="1138.4966"
       y="-547.94965"
       id="text2999"
       sodipodi:linespacing="125%"><tspan
         sodipodi:role="line"
         id="tspan3001"
         x="1138.4966"
         y="-547.94965">важное</tspan></text>
    <text
       xml:space="preserve"
       style="font-size:52.35714722000000165px;font-style:normal;font-weight:normal;line-height:125%;letter-spacing:0px;word-spacing:0px;fill:#b3b3b3;fill-opacity:1;stroke:none;font-family:Sans"
       x="1138.3297"
       y="-488.35205"
       id="text3003"
       sodipodi:linespacing="125%"><tspan
         sodipodi:role="line"
         id="tspan3005"
         x="1138.3297"
         y="-488.35205">недавнее</tspan></text>
    <rect
       style="fill:#ffffff;fill-opacity:1;stroke:#4d4d4d"
       id="rect3007"
       width="2565.7874"
       height="319.20822"
       x="52.527931"
       y="-196.18639"
       ry="64.649765" />
  </g>
</svg>
