<?xml version="1.0" encoding="UTF-8" standalone="no"?>
<!-- Created with Inkscape (http://www.inkscape.org/) -->

<svg
   xmlns:dc="http://purl.org/dc/elements/1.1/"
   xmlns:cc="http://creativecommons.org/ns#"
   xmlns:rdf="http://www.w3.org/1999/02/22-rdf-syntax-ns#"
   xmlns:svg="http://www.w3.org/2000/svg"
   xmlns="http://www.w3.org/2000/svg"
   xmlns:xlink="http://www.w3.org/1999/xlink"
   xmlns:sodipodi="http://sodipodi.sourceforge.net/DTD/sodipodi-0.dtd"
   xmlns:inkscape="http://www.inkscape.org/namespaces/inkscape"
   width="744.09448819"
   height="1052.3622047"
   id="svg2"
   version="1.1"
   inkscape:version="0.48.2 r9819"
   sodipodi:docname="epart_2.svg"
   inkscape:export-filename="D:\Dropbox\falanster\e_part\banners\epart_250x250.png"
   inkscape:export-xdpi="25.321798"
   inkscape:export-ydpi="25.321798">
  <defs
     id="defs4">
    <linearGradient
       id="linearGradient3849">
      <stop
         style="stop-color:#e1dede;stop-opacity:1;"
         offset="0"
         id="stop3851" />
      <stop
         id="stop3861"
         offset="0.91666669"
         style="stop-color:#f0e9e9;stop-opacity:0.87450981;" />
      <stop
         id="stop3859"
         offset="0.99421299"
         style="stop-color:#979595;stop-opacity:0.74901961;" />
      <stop
         id="stop3857"
         offset="1"
         style="stop-color:#4d4d4d;stop-opacity:0.49803922;" />
      <stop
         style="stop-color:#4d4d4d;stop-opacity:0;"
         offset="1"
         id="stop3853" />
    </linearGradient>
    <linearGradient
       inkscape:collect="always"
       id="linearGradient3839">
      <stop
         style="stop-color:#ffffff;stop-opacity:1;"
         offset="0"
         id="stop3841" />
      <stop
         style="stop-color:#ffffff;stop-opacity:0;"
         offset="1"
         id="stop3843" />
    </linearGradient>
    <linearGradient
       id="linearGradient3821">
      <stop
         id="stop3833"
         offset="0"
         style="stop-color:#ff8c55;stop-opacity:0.95535713;" />
      <stop
         style="stop-color:#ff8c55;stop-opacity:0;"
         offset="1"
         id="stop3825" />
    </linearGradient>
    <linearGradient
       id="linearGradient3809">
      <stop
         style="stop-color:#dbdee3;stop-opacity:0.625;"
         offset="0"
         id="stop3811" />
      <stop
         style="stop-color:#d5d6d7;stop-opacity:0.24705882;"
         offset="0.69444442"
         id="stop3819" />
      <stop
         style="stop-color:#dbdee3;stop-opacity:0;"
         offset="1"
         id="stop3813" />
    </linearGradient>
    <linearGradient
       id="linearGradient3799">
      <stop
         style="stop-color:#53676c;stop-opacity:1;"
         offset="0"
         id="stop3801" />
      <stop
         id="stop3807"
         offset="0.41666666"
         style="stop-color:#53676c;stop-opacity:0.49803922;" />
      <stop
         style="stop-color:#53676c;stop-opacity:0;"
         offset="1"
         id="stop3803" />
    </linearGradient>
    <filter
       id="filter4307"
       inkscape:label="Drop shadow"
       width="1.5"
       height="1.5"
       x="-.25"
       y="-.25">
      <feGaussianBlur
         id="feGaussianBlur4309"
         in="SourceAlpha"
         stdDeviation="7.9"
         result="blur" />
      <feColorMatrix
         id="feColorMatrix4311"
         result="bluralpha"
         type="matrix"
         values="1 0 0 0 0 0 1 0 0 0 0 0 1 0 0 0 0 0 0.782 0 " />
      <feOffset
         id="feOffset4313"
         in="bluralpha"
         dx="-11.2"
         dy="21.2"
         result="offsetBlur" />
      <feMerge
         id="feMerge4315">
        <feMergeNode
           id="feMergeNode4317"
           in="offsetBlur" />
        <feMergeNode
           id="feMergeNode4319"
           in="SourceGraphic" />
      </feMerge>
    </filter>
    <radialGradient
       inkscape:collect="always"
       xlink:href="#linearGradient3849"
       id="radialGradient4335"
       gradientUnits="userSpaceOnUse"
       cx="-855.71429"
       cy="-580.49493"
       fx="-855.71429"
       fy="-580.49493"
       r="270" />
    <linearGradient
       inkscape:collect="always"
       xlink:href="#linearGradient3799"
       id="linearGradient4337"
       gradientUnits="userSpaceOnUse"
       x1="44.446716"
       y1="-392.15594"
       x2="557.60419"
       y2="-392.15594" />
    <linearGradient
       inkscape:collect="always"
       xlink:href="#linearGradient3821"
       id="linearGradient4339"
       gradientUnits="userSpaceOnUse"
       x1="20.203049"
       y1="-418.41992"
       x2="472.75139"
       y2="-418.41992" />
    <linearGradient
       inkscape:collect="always"
       xlink:href="#linearGradient3839"
       id="linearGradient4341"
       gradientUnits="userSpaceOnUse"
       x1="20.203049"
       y1="-418.41992"
       x2="472.75139"
       y2="-418.41992" />
    <radialGradient
       inkscape:collect="always"
       xlink:href="#linearGradient3809"
       id="radialGradient4343"
       gradientUnits="userSpaceOnUse"
       cx="301.02545"
       cy="-392.15594"
       fx="301.02545"
       fy="-392.15594"
       r="256.57874" />
  </defs>
  <sodipodi:namedview
     id="base"
     pagecolor="#ffffff"
     bordercolor="#666666"
     borderopacity="1.0"
     inkscape:pageopacity="0.0"
     inkscape:pageshadow="2"
     inkscape:zoom="0.35"
     inkscape:cx="-536.61548"
     inkscape:cy="906.96058"
     inkscape:document-units="px"
     inkscape:current-layer="layer1"
     showgrid="false"
     inkscape:window-width="1366"
     inkscape:window-height="706"
     inkscape:window-x="-8"
     inkscape:window-y="-8"
     inkscape:window-maximized="1" />
  <metadata
     id="metadata7">
    <rdf:RDF>
      <cc:Work
         rdf:about="">
        <dc:format>image/svg+xml</dc:format>
        <dc:type
           rdf:resource="http://purl.org/dc/dcmitype/StillImage" />
        <dc:title></dc:title>
      </cc:Work>
    </rdf:RDF>
  </metadata>
  <g
     inkscape:label="Layer 1"
     inkscape:groupmode="layer"
     id="layer1">
    <path
       sodipodi:type="arc"
       style="fill:#ffffff;fill-opacity:1;stroke:none"
       id="path4345"
       sodipodi:cx="-627.14288"
       sodipodi:cy="-11.923532"
       sodipodi:rx="267.14285"
       sodipodi:ry="267.14285"
       d="m -360.00003,-11.923532 a 267.14285,267.14285 0 1 1 -534.28571,0 267.14285,267.14285 0 1 1 534.28571,0 z"
       transform="matrix(1.026738,0,0,1.026738,12.482813,-41.10976)" />
    <rect
       style="fill:#f9f9f9;fill-opacity:1;stroke:#ff6600;stroke-width:13.18849373;stroke-linecap:round;stroke-linejoin:round;stroke-miterlimit:4;stroke-opacity:1;stroke-dasharray:none"
       id="rect2997"
       width="722.04962"
       height="1089.6686"
       x="-977.92072"
       y="-417.09378" />
    <path
       sodipodi:type="arc"
       style="fill:none;stroke:none"
       id="path3012"
       sodipodi:cx="-604.07123"
       sodipodi:cy="-76.988365"
       sodipodi:rx="260.61935"
       sodipodi:ry="260.61935"
       d="m -343.45187,-76.988365 a 260.61935,260.61935 0 1 1 -521.23871,0 260.61935,260.61935 0 1 1 521.23871,0 z"
       transform="matrix(0,1,-1,0,-706.28372,533.0002)" />
    <text
       xml:space="preserve"
       style="font-size:151.81733704px;font-style:normal;font-weight:normal;line-height:83.99999738%;letter-spacing:0px;word-spacing:0px;fill:#ff6600;fill-opacity:1;stroke:none;font-family:Sans"
       x="-613.73877"
       y="381.61139"
       id="text3002"
       sodipodi:linespacing="83.999997%"><tspan
         sodipodi:role="line"
         x="-592.68597"
         y="381.61139"
         id="tspan3006"
         style="text-align:center;line-height:83.99999738%;text-anchor:middle;fill:#ff6600">Прымай </tspan><tspan
         sodipodi:role="line"
         x="-592.68597"
         y="509.13794"
         style="text-align:center;line-height:83.99999738%;text-anchor:middle;fill:#ff6600"
         id="tspan4356">рашэнні </tspan><tspan
         sodipodi:role="line"
         x="-613.73877"
         y="597.71277"
         id="tspan3010"
         style="font-size:80px;text-align:center;line-height:83.99999737999999600%;text-anchor:middle;fill:#d45500">ў сваёй краіне!</tspan></text>
    <g
       id="g3865"
       style="filter:url(#filter4307)"
       transform="matrix(0.84098377,0,0,0.84098377,-658.39387,277.53666)">
      <path
         transform="matrix(1.0793651,0,0,1.0793651,969.3424,233.21389)"
         d="m -585.71429,-580.49493 c 0,149.11688 -120.88312,270 -270,270 -149.11691,0 -270.00001,-120.88312 -270.00001,-270 0,-149.11689 120.8831,-270 270.00001,-270 149.11688,0 270,120.88311 270,270 z"
         sodipodi:ry="270"
         sodipodi:rx="270"
         sodipodi:cy="-580.49493"
         sodipodi:cx="-855.71429"
         id="path3847"
         style="fill:url(#radialGradient4335);fill-opacity:1;stroke:none"
         sodipodi:type="arc" />
      <path
         transform="matrix(1.1325072,0,0,1.1325072,-296.00432,52.314606)"
         d="m 557.60419,-392.15594 c 0,141.70452 -114.87422,256.57873 -256.57874,256.57873 -141.70452,0 -256.578734,-114.87421 -256.578734,-256.57873 0,-141.70453 114.874214,-256.57874 256.578734,-256.57874 141.70452,0 256.57874,114.87421 256.57874,256.57874 z"
         sodipodi:ry="256.57874"
         sodipodi:rx="256.57874"
         sodipodi:cy="-392.15594"
         sodipodi:cx="301.02545"
         id="path3019"
         style="fill:url(#linearGradient4337);fill-opacity:1;stroke:none"
         sodipodi:type="arc" />
      <path
         transform="matrix(1.1696429,0,0,1.1696429,-240.93297,97.147387)"
         d="m 472.75139,-418.41992 c 0,124.96777 -101.3064,226.27417 -226.27417,226.27417 -124.96777,0 -226.274171,-101.3064 -226.274171,-226.27417 0,-124.96778 101.306401,-226.27417 226.274171,-226.27417 124.96777,0 226.27417,101.30639 226.27417,226.27417 z"
         sodipodi:ry="226.27417"
         sodipodi:rx="226.27417"
         sodipodi:cy="-418.41992"
         sodipodi:cx="246.47722"
         id="path3021"
         style="fill:url(#linearGradient4339);fill-opacity:1;stroke:none"
         sodipodi:type="arc" />
      <path
         sodipodi:type="arc"
         style="fill:url(#linearGradient4341);fill-opacity:1;stroke:none"
         id="path3835"
         sodipodi:cx="246.47722"
         sodipodi:cy="-418.41992"
         sodipodi:rx="226.27417"
         sodipodi:ry="226.27417"
         d="m 472.75139,-418.41992 c 0,124.96777 -101.3064,226.27417 -226.27417,226.27417 -124.96777,0 -226.274171,-101.3064 -226.274171,-226.27417 0,-124.96778 101.306401,-226.27417 226.274171,-226.27417 124.96777,0 226.27417,101.30639 226.27417,226.27417 z"
         transform="matrix(-1.1696429,0,0,-1.1696429,335.64769,-881.65644)" />
      <path
         inkscape:connector-curvature="0"
         id="path4615"
         d="m 46.778099,-644.68894 c -49.4553904,0 -95.57953,14.24961 -134.50075,38.86144 1.8875,1.43114 3.75036,2.80428 5.69981,4.15156 7.28731,5.03619 24.19302,15.72648 30.64343,19.37968 1.10379,0.62511 5.42332,4.54584 9.61325,8.71149 l 7.62261,7.57153 2.5522,-0.39133 c 8.32982,-1.30147 10.69601,-1.49 18.92022,-1.49731 8.1956796,-0.007 12.28323957,0.29511 20.2474196,1.51431 l 2.5862604,0.40834 10.77032,-10.71922 c 6.36098,-6.32828 11.28306,-10.89481 12.04632,-11.16158 0.71065,-0.24844 2.31233,-0.85316 3.55598,-1.34416 1.24394,-0.49105 3.19624,-1.26335 4.33875,-1.70147 3.81164,-1.4613 14.00537,-7.51339 19.02241,-11.29773 2.72698,-2.05695 6.90046,-5.74577 9.27301,-8.20104 4.02163,-4.16219 4.69079,-5.11977 9.83447,-14.15619 3.03411,-5.33062 5.69553,-9.98958 5.90408,-10.34491 0.20856,-0.35536 1.43899,-2.50172 2.73925,-4.76409 0.3547,-0.61694 0.65041,-1.11844 0.91882,-1.56535 -13.59253,-2.2685 -27.55119,-3.45397 -41.78786,-3.45397 z m 47.99833,4.55994 c -3.33401,6.98231 -8.35743,17.004 -10.90648,21.59157 -1.64556,2.96147 -3.20794,5.7705 -3.47093,6.24436 -3.20118,5.76697 -9.09765,12.70994 -10.80428,12.70994 -0.81702,0 -1.92242,0.57305 -7.09512,3.67516 -2.01376,1.20778 -6.09029,3.63314 -9.05189,5.37662 -5.06129,2.97982 -12.34108,7.30299 -13.78188,8.18404 -0.35537,0.21737 -1.70853,0.99891 -3.01146,1.75252 -2.10472,1.21716 -18.11568,16.00834 -18.08656,16.70837 0.0133,0.26794 2.46256,2.13562 7.99682,6.09124 1.49169,1.06618 3.74503,2.72824 5.00229,3.69218 1.25716,0.96387 4.52533,3.41907 7.26534,5.46168 l 4.98517,3.70921 1.53137,3.59009 c 5.02922,11.68058 6.32311,21.70931 4.38984,34.16538 -0.36784,2.36915 -0.75127,4.88701 -0.8508,5.59783 -0.0989,0.71069 -0.48933,2.35505 -0.86773,3.65813 -0.37858,1.30304 -0.76354,2.73252 -0.8507,3.18175 -0.68419,3.52978 -2.96179,6.75408 -9.42619,13.3735 -4.3886,4.49388 -9.28262,8.33848 -13.03308,10.20878 -2.74467,1.36873 -3.16512,1.45102 -7.01006,1.3952 -2.25077,-0.0326 -6.12016,-0.47382 -8.5924304,-0.96983 -2.47237,-0.4959 -4.58936,-0.80426 -4.69612,-0.69761 -0.27231,0.2724 0.8526,1.88237 2.53526,3.65816 2.12394,2.24157 6.6702004,8.6461 8.1670304,11.50189 0.72197,1.37756 1.333,3.08351 1.36116,3.79426 0.0799,2.01939 -0.83062,14.02081 -1.56534,20.63876 -0.36584,3.29539 -0.58753,6.06527 -0.49343,6.1593 0.0932,0.0941 1.34965,-1.43502 2.79035,-3.40294 1.44079,-1.96796 2.8911,-3.88131 3.21583,-4.23663 0.32464,-0.35538 1.39674,-1.79427 2.38207,-3.21576 0.98524,-1.42151 2.22337,-3.17029 2.75638,-3.87934 1.34622,-1.79098 7.72765,-10.54889 8.64333,-11.85922 0.41389,-0.5923 1.89493,-2.61352 3.30099,-4.50887 1.40597,-1.89535 3.34438,-4.56573 4.30459,-5.9211 1.65107,-2.33042 2.75571,-3.25646 9.4772,-7.89478 1.54003,-1.0627 3.73114,-2.58872 4.86623,-3.40293 2.34382,-1.68127 2.45638,-1.67239 6.05718,0.74864 2.09692,1.4099 2.61727,1.59255 3.06265,1.10595 0.29457,-0.322 2.47522,-2.71948 4.8491,-5.32558 2.37389,-2.60611 4.96709,-5.41838 5.76803,-6.26138 0.80103,-0.84289 3.27045,-3.58653 5.47868,-6.09124 2.62185,-2.97389 4.56282,-4.77499 5.59772,-5.20647 2.88302,-1.20176 10.7179,-4.18561 10.99144,-4.18561 0.14805,0 1.38713,-0.51482 2.756571,-1.13997 4.518,-2.06268 10.67841,-7.30849 14.49643,-12.33562 1.34555,-1.77154 4.42856,-7.93596 4.79801,-9.59627 0.28239,-1.26828 1.43717,-5.00735 2.79044,-9.01773 0.3997,-1.18457 1.16601,-3.61679 1.70149,-5.39366 0.53539,-1.77686 1.31967,-4.29478 1.73546,-5.5978 0.41559,-1.30304 1.19789,-3.82097 1.73556,-5.59783 0.53757,-1.7769 1.2113,-4.00356 1.51433,-4.95126 1.49152,-4.66621 4.6769,-14.92166 6.48248,-20.89398 1.94469,-6.43267 2.09483,-6.75711 4.21963,-8.91566 l 2.21186,-2.24594 2.07579,0.91879 c 1.96314,0.85889 2.07513,0.99121 1.83765,2.24593 -0.4921,2.59854 -0.6018,3.08448 -1.32719,5.85305 -0.40342,1.53997 -0.79342,3.18433 -0.8508,3.65813 -0.0571,0.47386 -0.40351,1.92977 -0.78267,3.23278 -0.37886,1.30302 -0.79485,2.9474 -0.91872,3.65815 -0.12331,0.71074 -0.50304,2.45784 -0.8507,3.87932 -0.34766,1.42151 -1.04784,4.31627 -1.54831,6.44858 -0.50056,2.13218 -1.29161,5.34208 -1.76952,7.12912 -0.47783,1.78711 -0.93767,3.72261 -1.00389,4.3047 -0.0666,0.58209 -0.4273,2.15751 -0.81673,3.48802 -0.38943,1.33052 -0.79532,3.07759 -0.90179,3.87932 -0.36412,2.74408 -1.99436,7.20903 -4.62789,12.72697 -1.4487,3.03546 -3.74571,7.84224 -5.10439,10.68517 -1.35849,2.84299 -2.90899,6.18799 -3.43705,7.4184 -0.81607,1.9017 -1.45183,2.56956 -4.25349,4.49185 -1.81282,1.24368 -3.38653,2.38405 -3.50508,2.53519 -0.11789,0.15103 -1.75021,1.31926 -3.6242,2.60323 -1.874,1.28397 -4.68308,3.24902 -6.24433,4.35574 -1.56135,1.10674 -3.90888,2.745 -5.206481,3.64114 -1.2976,0.89614 -2.65076,1.87156 -3.01165,2.17788 -0.64661,0.54883 -1.37847,1.07158 -8.62631,6.14228 -2.01385,1.40887 -5.01142,3.53975 -6.66982,4.73008 -1.65839,1.19031 -4.27899,3.01741 -5.81902,4.06649 -4.36719,2.97513 -4.57157,3.25961 -5.59771,7.69062 l -0.91883,3.99844 -3.04562,2.58622 c -1.67152,1.4215 -5.4824,4.67717 -8.47331,7.23121 -2.99081,2.554 -7.67142,6.52208 -10.39592,8.81358 -2.7245,2.29162 -5.82483,4.96508 -6.89103,5.95514 -1.06602,0.99006 -4.2691,3.73703 -7.11206,6.10823 -7.11834,5.93717 -8.7753,7.61197 -11.11056,11.09357 -1.11245,1.65844 -2.98777,4.36479 -4.16853,6.02318 -3.51859,4.94236 -3.47197,4.6068 -1.03795,7.2142 5.93472,6.35743 8.37369,7.59648 25.36884,12.86306 1.65839,0.51392 4.0906,1.29223 5.39362,1.71849 2.25296,0.73709 15.98908,5.07433 21.96595,6.94196 1.54003,0.48121 3.86948,1.22329 5.1725,1.65042 1.30293,0.42704 4.98555,1.5972 8.18398,2.58623 7.3914,2.28563 10.85614,3.38608 13.56057,4.30472 1.18465,0.40236 3.993641,1.31512 6.244511,2.02473 l 4.1005,1.2761 2.29692,4.04948 c 1.26611,2.22546 2.79253,5.02573 3.40299,6.21034 4.38318,8.5058 13.28008,22.03393 20.79184,31.64722 2.25077,2.88041 4.92351,6.32708 5.93805,7.6736 1.01473,1.34647 5.02989,5.87073 8.93267,10.03864 8.0405,8.58664 4.94674,6.52535 26.04951,17.28687 5.33055,2.71836 16.27565,8.31793 24.33089,12.43771 21.35292,10.92078 32.36206,16.50608 35.64573,18.12058 l 2.89244,1.42923 0,5.27454 c 0,2.90223 -0.0476,5.27453 -0.13616,5.27453 -0.19866,0 -16.33692,-7.80593 -30.21803,-14.63257 -12.60788,-6.20059 -24.72375,-12.09059 -39.96736,-19.43072 l -11.53586,-5.56381 -4.18556,0 -4.18566,-0.0169 -1.37818,-2.02475 c -0.76031,-1.12111 -1.9405,-2.81258 -2.62032,-3.76023 -1.20997,-1.68677 -4.31306,-6.08931 -9.1028,-12.88008 -1.31767,-1.86828 -2.91117,-4.09497 -3.52201,-4.95126 -1.61301,-2.26102 -6.23795,-8.84486 -8.67749,-12.33561 -1.15907,-1.65846 -3.00775,-4.29899 -4.11744,-5.87006 -6.5348,-9.251 -7.8796,-11.15436 -10.39592,-14.73466 -2.64734,-3.76637 -4.58755,-6.49572 -7.997011,-11.2637 -0.84699,-1.18459 -1.7994,-2.52515 -2.10976,-2.97755 -0.53158,-0.77505 -0.62074,-0.77565 -1.58247,-0.10212 -1.52138,1.06563 -9.22668,0.96626 -14.105,-0.17015 -6.85935,-1.59779 -10.16775,-2.70034 -15.16006,-5.07036 -2.7245,-1.29338 -6.11597,-2.87596 -7.53745,-3.52203 -2.46723,-1.12122 -5.92892,-2.77725 -18.58008,-8.86462 -3.11299,-1.49783 -8.16675,-3.88945 -11.22969,-5.32559 l -5.56375,-2.62026 -4.16853,0 c -2.29396,0 -4.18556,0.11404 -4.18556,0.25523 0,0.22736 2.93991,7.33554 5.24054,12.67591 0.45917,1.06606 1.95791,3.10439 3.33477,4.52589 1.37695,1.42143 5.28973,5.68651 8.69442,9.47714 3.4047,3.79071 7.67171,8.4326 9.47729,10.32789 1.80549,1.89536 6.25042,6.74273 9.88547,10.77026 3.63485,4.0276 9.03733,9.88408 11.99523,13.01621 3.65284,3.86789 5.53511,6.22742 5.88724,7.3333 0.28506,0.89555 0.9663,3.07225 1.49722,4.84917 0.53091,1.77686 1.29645,4.29479 1.71833,5.59782 3.0107,9.29739 3.00908,9.16125 1.75268,21.65964 -0.45803,4.55523 -0.94613,10.22161 -1.08904,12.59081 -0.14291,2.3691 -0.5371,6.9254 -0.86773,10.12372 -0.33054,3.19837 -0.70056,7.67222 -0.83376,9.93655 -0.13273,2.26433 -0.53805,6.90619 -0.88476,10.32789 -1.25165,12.35381 -1.59931,20.49066 -1.00379,23.46319 0.14234,0.71075 0.6801,3.1259 1.19094,5.37663 0.51103,2.25067 1.31482,5.83067 1.78664,7.96286 0.47164,2.1323 1.17249,5.14676 1.54831,6.68674 0.37583,1.53993 0.73443,3.28712 0.7997,3.87935 0.0647,0.59233 0.44748,2.42504 0.8507,4.08351 0.40323,1.65838 0.79675,3.57809 0.88476,4.25365 0.0875,0.67563 0.54614,2.69688 1.00389,4.50889 0.45775,1.81204 1.21615,5.15063 1.7014,7.40135 0.48534,2.25074 1.19703,5.43673 1.56534,7.09511 0.3684,1.65841 0.74394,3.5082 0.8507,4.10052 0.10694,0.59228 0.58847,2.71631 1.05506,4.73008 0.46641,2.01383 1.2586,5.61071 1.76943,7.97986 0.49905,2.31394 1.28324,5.64922 1.78646,7.57152 -3.88328,0.5969 -7.80024,1.09691 -11.74004,1.51431 -0.14329,-0.7375 -0.27117,-1.38413 -0.42531,-2.1949 -0.49571,-2.60609 -1.27076,-6.72669 -1.73555,-9.15388 -0.46479,-2.42718 -1.23518,-6.50372 -1.71843,-9.05179 -0.48315,-2.54805 -1.2623,-6.47783 -1.71852,-8.7285 -1.34565,-6.63984 -2.1425,-10.80844 -2.58626,-13.56065 -0.22911,-1.4215 -0.68676,-3.85368 -1.02082,-5.39365 -0.33415,-1.53993 -1.02148,-5.01713 -1.53137,-7.74167 -0.72672,-3.88401 -1.40797,-5.94349 -3.13068,-9.5452 l -2.19492,-4.59397 0.52759,-5.75095 c 0.50123,-5.44417 1.1055,-11.60683 3.04562,-30.94962 0.46336,-4.61986 1.24355,-12.56748 1.73546,-17.6612 0.4919,-5.09372 1.28094,-12.8359 1.73546,-17.21883 0.45451,-4.38301 0.93005,-9.50286 1.07191,-11.36576 l 0.25528,-3.38591 -2.41614,-3.1477 c -1.32871,-1.73485 -2.55971,-3.22631 -2.73944,-3.30086 -0.17954,-0.0745 -2.19045,-2.44855 -4.47471,-5.29155 -4.10069,-5.10373 -6.97076,-8.62851 -15.8237,-19.39668 -12.21806,-14.8617 -12.15993,-14.78092 -18.0525,-25.60702 -3.1009,-5.69726 -5.63178,-10.56444 -5.63178,-10.82131 0,-0.25688 -4.11953,-4.51217 -9.1538904,-9.46013 l -9.15398003,-9.00075 -2.87539997,-0.0169 -2.89253,0 -0.13616,4.32173 -0.13606,4.32171 1.46335,1.3782 c 0.80093,0.75806 2.40243,2.8119 3.55607,4.55992 1.84402997,2.79465 2.09273997,3.45865 2.09273997,5.46169 0,1.25293 -0.14558,2.34795 -0.32331,2.43311 -0.17764,0.0852 -1.74801997,1.62133 -3.48794997,3.41993 -3.02697,3.12911 -3.16845,3.3637 -3.23277,5.42768 l -0.0675,2.16085 3.02868,0.23821 c 5.71836,0.45926 9.02649,2.40217 9.54513,5.59781 0.30618,1.88689 -0.24519,2.9849 -4.93417003,10.1237 l -3.40288997,5.18947 3.26672997,0.73161 c 3.46636003,0.78045 11.45680043,3.12363 12.53975043,3.67517 0.35537,0.18104 1.41749,0.65631 2.36504,1.05492 11.59419,4.87669 21.06244,13.53827 26.44085,24.21182 1.49845,2.97394 3.04818,6.77163 3.3008,8.04792 0.0894,0.45355 0.46279,1.70404 0.81663,2.7904 0.35404,1.08645 0.73424,2.55605 0.8508,3.26683 0.11636,0.71073 0.50684,3.00445 0.86773,5.08736 1.09903,6.34175 0.80274,28.07134 -0.40837,30.03083 -0.12454,0.20169 -0.29723,0.91218 -0.39133,1.58238 -0.0932,0.67017 -0.49857,2.27294 -0.9018,3.57306 -0.40322,1.30014 -0.81673,2.85882 -0.91872,3.45397 -0.10152,0.5952 -0.4744,1.85977 -0.81683,2.80743 -0.34224,0.94763 -0.70218,2.20445 -0.79961,2.8074 -0.16184,1.00008 -0.94908,3.91329 -2.62022,9.68132 -0.34328,1.18457 -0.82206,3.07068 -1.07201,4.20263 -0.24985,1.13195 -1.08694,2.89414 -1.85458,3.91337 -0.76735,1.0192 -2.49472,3.29537 -3.84522,5.05336 -1.35069,1.75797 -5.20382,6.77861 -8.55837,11.16159 -3.35475,4.38299 -7.47951,9.77191 -9.17092,11.97831 -1.69141,2.20639 -4.14161,5.44577 -5.44472,7.18017 -4.2577804,5.66741 -5.3657604,6.97575 -6.2443304,7.43538 -0.47649,0.24924 -3.46179,1.76987 -6.63566,3.36893 l -5.76803,2.89247 -5.0022896,-0.2382 c -10.75101,-0.54407 -17.43643,-3.12228 -23.66735,-9.10284 -2.84666,-2.73222 -5.2903,-5.9892 -6.95896,-9.28998 -0.85708,-1.69537 -6.1098,-9.6869 -18.8522,-28.68667 -1.92357,-2.86787 -3.88576,-6.31933 -4.35578,-7.65659 -0.47002,-1.33733 -0.76079,-2.43311 -0.66364,-2.43311 0.0975,0 -0.19952,-1.01912 -0.64661,-2.26294 -0.78905,-2.19567 -2.66561,-8.22742 -2.85847,-9.18791 -0.0514,-0.26156 -0.5019,-1.71746 -0.98676,-3.23278 -0.48496,-1.51526 -1.26525,-4.00739 -1.75249,-5.52976 -0.84014,-2.625 -0.88105,-3.58781 -0.7487,-18.7331 0.1098,-12.56791 0.28306,-16.61539 0.81682,-18.98835 0.37278,-1.65839 0.77563,-3.78243 0.9017,-4.73005 0.73434,-5.52267 5.75946,-16.12531 10.77023,-22.73157 5.54386,-7.30878 12.91586,-12.76447 21.38736,-15.82361 3.53048,-1.27488 13.14231,-3.45396 15.24512,-3.45396 0.62454,0 1.12301,-0.10144 1.12301,-0.23822 0,-0.13672 -1.3721,-2.61179 -3.06265,-5.49573 -1.69065,-2.88388 -3.54276,-6.09143 -4.10041,-7.12911 l -1.00397,-1.88864 0.95288,-2.0928 0.96982,-2.10981 5.30847,0 c 5.30458,0 5.3119,-5.5e-4 5.01933,-0.96984 -0.36174,-1.19767 -3.0852,-9.2256 -4.72999,-13.96902 l -1.225,-3.52202 2.38198,-2.92651 c 4.61847,-5.72869 5.52978,-7.88463 4.61096,-10.7873 -0.50076,-1.58215 -0.7352,-1.59031 -6.19333,-0.0511 -2.9991,0.84577 -3.04591,0.88879 -10.24274,8.03092 -4.71153,4.67567 -8.0364,8.39033 -9.52819,10.63415 -1.26011,1.89529 -4.38556,6.6399 -6.94194,10.54908 -2.55647,3.90905 -6.63671,10.10962 -9.05189,13.78183 -2.41518,3.67223 -6.47943,9.87273 -9.03476,13.78186 -10.90458,16.68203 -13.29388,20.24741 -13.5777,20.24741 -0.16508,0 -0.7958,0.4667 -1.41215,1.0379 -0.61626,0.57115 -2.78312,2.34353 -4.81524,3.93038 -2.55467,1.99488 -3.63923,3.10126 -3.50489,3.59008 0.10704,0.38889 0.49914,3.81486 0.86773,7.60555 0.92177,9.47969 2.23717,23.18428 3.28368,34.23346 1.38893,14.66274 2.4794,25.83105 3.42001,34.91404 0.86041,8.31038 0.86003,8.45445 0.0514,11.84219 -0.45051,1.8868 -1.24574,5.37252 -1.76943,7.74167 -0.52377,2.3692 -1.31672,5.83343 -1.76961,7.69061 -0.4529,1.85705 -0.90351,3.87837 -0.98686,4.50886 -0.0837,0.63052 -0.44956,2.40743 -0.81673,3.94741 -0.14814,0.62127 -0.38581,1.62246 -0.61245,2.62025 -3.45637,-2.28828 -6.85764,-4.66072 -10.191739,-7.11212 0.2959,-1.57129 0.57411,-3.28617 0.78267,-4.7641 1.027769,-7.28296 2.203199,-15.69582 3.266739,-23.48018 0.5017,-3.67218 1.28209,-9.09485 1.73546,-12.0634 0.80655,-5.27884 0.80008,-5.48322 0.0171,-9.05178 -5.128359,-23.36255 -7.075329,-49.64939 -4.815239,-65.01293 l 0.986949,-6.66974 7.74173,-10.3449 c 4.25702,-5.69438 7.96704,-10.65311 8.2521,-11.00846 0.28505,-0.35544 2.82649,-3.74686 5.64881,-7.5375 2.82231,-3.79065 5.25861,-6.99364 5.41056,-7.1121 0.15214,-0.11851 1.35735,-1.6601 2.67132,-3.43696 1.31415,-1.77687 7.49578,-8.36639 13.74791,-14.6496 9.02639,-9.07149 11.56431,-11.87458 12.30159,-13.57769 1.42995,-3.30308 3.16475,-7.56422 3.16475,-7.77569 0,-0.26266 -5.21076,0.17377 -11.63806,0.96983 -3.71259,0.45985 -5.97982,0.97233 -7.31624,1.65043 -1.06611,0.54087 -4.35492,2.15163 -7.31643,3.57308 -2.96141,1.42149 -8.30537,3.98023 -11.85917,5.6999 -18.11091,8.7637 -26.524849,12.62965 -29.060969,13.33947 -6.29808,1.76284 -12.79607,1.81289 -15.38127,0.11903 -1.24584,-0.81636 -0.48896,-1.68258 -7.67352,8.93269 -2.96655,4.38293 -7.83231,11.54273 -10.80429,15.92569 -7.09921,10.46944 -12.51881,18.51294 -14.46245,21.45546 -0.86393,1.30804 -1.78132,2.68663 -2.04183,3.06264 -4.45111,6.42822 -7.85229,11.41813 -8.88158,13.0162 -0.70579,1.09563 -2.24725,3.4546 -3.41983,5.24051 l -2.12689,3.2498 -4.33874,0.49343 c -1.98008,0.22323 -3.59299,0.40931 -5.05339,0.59551 -1.7797,-3.92515 -3.47216,-7.89775 -5.05339,-11.92727 3.08587,-1.53816 5.48887,-2.76025 5.56384,-2.85845 0.20038,-0.26233 1.31311,-0.9206 6.56764,-3.87935 1.7544,-0.98783 2.67522,-2.09326 6.41455,-7.7927 2.39814,-3.65534 5.17993,-7.90314 6.19332,-9.44311 1.66001,-2.52282 8.9753,-13.70132 16.48716,-25.19868 1.54783,-2.36915 3.9595,-6.02745 5.34263,-8.11598 1.38304,-2.08858 2.50101,-3.85995 2.50101,-3.9474 0,-0.0873 1.16991,-1.89774 2.58625,-4.01546 2.20919,-3.30257 2.80918,-3.91173 4.20269,-4.28768 0.89332,-0.2411 2.48977,-0.7426 3.55598,-1.12298 2.1718,-0.77483 12.05479,-4.01816 28.431479,-9.32401 6.04129,-1.95742 14.94827,-4.87125 19.80509,-6.46557 20.72324,-6.80296 27.43217,-8.9692 28.55051,-9.22193 0.65365,-0.14766 3.2125,-2.12416 5.6999,-4.40679 l 4.526,-4.15157 0,-2.41609 0,-2.43308 -20.58776,-20.55368 c -11.32321,-11.3071 -20.8103,-20.55369 -21.08118,-20.55369 -0.27098,0 -2.80937,-1.35319 -5.64891,-3.01159 -2.83934,-1.65839 -5.38202,-3.02861 -5.63177,-3.02861 -1.0997,0 -2.29197,-3.71357 -3.28387,-10.22579 -0.15328,-1.00689 -0.41483,-1.83758 -0.57839,-1.83758 -0.36707,0 -7.814329,-4.39265 -10.174799,-6.00617 -0.94927,-0.64884 -3.94522,-2.52476 -6.66982,-4.15157 -2.7244,-1.62688 -5.15662,-3.10772 -5.39363,-3.30085 -0.40408,-0.32939 -5.24625,-3.3222 -9.0007,-5.56377 -0.9212,-0.54998 -2.56551,-1.57906 -3.65827,-2.27997 -1.09246,-0.7009 -2.36751,-1.49559 -2.84134,-1.76952 -4.86414,-2.81244 -6.13852,-3.83531 -8.37122,-6.78883 -1.32062,-1.74722 -4.14864,-5.48744 -6.29532,-8.30315 -3.8986,-5.11333 -4.26634,-5.8553 -6.43157,-12.91411 -0.36955,-1.20491 -0.75746,-2.5779 -0.8508,-3.06264 -0.0932,-0.48473 -0.95326,-3.48554 -1.92261,-6.65272 -0.52245,-1.7074 -1.00493,-3.27889 -1.49722,-4.90022 2.96075,-4.32957 6.05471,-8.56338 9.27292,-12.69292 0.46174,1.26442 0.7997,2.3085 0.7997,2.53518 0,0.28928 0.32169,1.14741 0.71455,1.90564 0.39304,0.75824 0.86449,1.96061 1.05507,2.6713 0.19039,0.7108 0.85022,2.64626 1.44612,4.30471 0.59581,1.65839 3.08378,9.02368 5.54691,16.36807 l 4.49174,13.3565 2.96047,1.6334 c 2.96816,1.6455 7.7089,4.16679 16.96364,9.03477 2.7246,1.43314 5.52551,2.9603 6.22739,3.38591 0.7018,0.42562 5.98715,5.4675 11.757079,11.19563 l 10.49801,10.41297 2.09283,-2.07578 c 2.27656,-2.24229 2.14925,-2.25073 4.5258,-0.0681 0.47707,0.43797 2.01557,1.68624 3.43705,2.77338 1.42158,1.08709 3.66531,2.88562 4.96833,3.98143 1.30293,1.09579 3.61554,2.93461 5.15538,4.10053 4.34065,3.2864 5.00296,3.95875 7.87779,8.08194 1.47829,2.12033 3.27064,4.69025 3.98138,5.69991 0.71074,1.00966 2.24497,3.25754 3.41993,5.0023 1.17524,1.74469 2.24363,3.26744 2.38216,3.38593 0.13844,0.11836 1.03176,1.3859 1.97371,2.80741 2.68244,4.04839 5.12417,7.18983 6.85687,8.83058 l 1.58228,1.49729 -0.23806,-1.93967 c -0.13615,-1.06611 -0.53947,-4.06369 -0.88485,-6.66973 -1.00722,-7.59946 -1.17458,-11.42148 -0.68049,-14.8708 0.88315,-6.16576 1.4427,-7.38704 5.4275,-11.92725 4.99421,-5.69035 8.9068,-10.464 8.59244,-10.464 -0.14329,0 -0.68324,0.27478 -1.20807,0.61252 -2.70937,1.7435 -6.48248,2.58674 -11.72302,2.60324 -5.9879,0.0186 -9.07729,-0.78944 -14.87082,-3.82828 -3.14457,-1.64953 -3.76435,-2.18769 -7.01006,-6.29542 -1.9562,-2.47592 -4.26881,-5.51095 -5.13835,-6.73781 -1.57752,-2.22545 -5.43702,-9.25605 -5.7509,-10.481 -0.0904,-0.35539 -0.56545,-1.81129 -1.07201,-3.23278 -0.84242,-2.36409 -0.93471,-3.50608 -0.96982,-13.35649 -0.0381,-10.48838 -0.0133,-10.86294 1.12301,-14.71768 0.63909,-2.17682 1.174,-4.31242 1.174,-4.74706 0,-0.66139 1.37448,-4.66882 2.79034,-8.09898 0.19553,-0.47379 0.37621,-0.95343 0.40827,-1.07192 0.57697,-2.12866 0.7115,-2.23599 17.21883,-14.54752 3.57654,-2.66746 6.99494,-5.33221 7.60558,-5.92109 l 1.10598,-1.07193 -0.95279,-2.84144 c -0.52606,-1.56305 -1.12358,-2.99506 -1.3271,-3.19875 -0.3664,-0.36632 -2.83154,-1.79963 -5.75099,-3.33488 -2.53136,-1.33116 -15.8749,-9.12795 -20.67272,-12.08039 -2.48769,-1.53071 -5.21114,-3.19686 -6.04024,-3.69217 -2.27979,-1.36182 -5.75176,-3.6161 -6.31245,-4.10052 -0.27374,-0.2364 -1.52415,-1.06439 -2.79035,-1.83759 -1.26629,-0.77325 -2.54248,-1.64924 -2.84153,-1.93966 -0.29895,-0.29042 -2.14868,-1.69723 -4.1004,-3.1307 -0.10847,-0.0795 -0.20485,-0.16026 -0.30637,-0.23821 -66.212899,45.41156 -109.642319,121.63267 -109.642319,207.98693 0,139.18188 112.821859,252.00381 252.003789,252.00381 139.181831,0 252.020721,-112.82193 252.020721,-252.00381 0,-122.76982 -87.79536,-225.05002 -204.022401,-247.46089 z m -134.39866,212.8531 c -0.87249,0.032 -0.86231,0.27147 -0.74871,2.04176 0.12065,1.87372 0.22531,2.05308 1.31026,2.17787 0.8368,0.0963 1.19094,0.38143 1.19094,0.96983 0,0.60731 0.29894,0.83373 1.10588,0.83373 0.90141,0 1.082,-0.18052 0.97001,-0.96984 -0.0875,-0.62288 -0.48315,-1.01748 -1.10617,-1.10595 -0.83842,-0.11918 -0.96972,-0.39061 -0.96972,-2.04176 0,-1.8409 -0.058,-1.90564 -1.3271,-1.90564 -0.1626,0 -0.30075,-0.004 -0.42539,0 z m 52.91546,2.14385 c -0.54509,0.0562 -0.76564,0.32655 -0.76564,0.86774 0,0.63182 -0.2822,0.86775 -1.07191,0.86775 -0.86155,0 -1.08895,0.21042 -1.08895,1.07193 0,0.8615 0.2274,1.07192 1.08895,1.07192 0.77677,0 1.07191,-0.23387 1.07191,-0.83373 0,-0.5344 0.3469,-0.88134 0.96982,-0.96983 1.41406,-0.20079 1.4603,-2.07578 0.0514,-2.07578 -0.0923,0 -0.17735,-0.009 -0.25528,0 z"
         style="fill:#ff3500;fill-opacity:1;stroke:none" />
      <path
         sodipodi:type="arc"
         style="fill:url(#radialGradient4343);fill-opacity:1;stroke:none"
         id="path3797"
         sodipodi:cx="301.02545"
         sodipodi:cy="-392.15594"
         sodipodi:rx="256.57874"
         sodipodi:ry="256.57874"
         d="m 557.60419,-392.15594 c 0,141.70452 -114.87422,256.57873 -256.57874,256.57873 -141.70452,0 -256.578734,-114.87421 -256.578734,-256.57873 0,-141.70453 114.874214,-256.57874 256.578734,-256.57874 141.70452,0 256.57874,114.87421 256.57874,256.57874 z"
         transform="matrix(1.0587753,0,0,1.0587753,-273.21735,13.400177)" />
    </g>
    <text
       xml:space="preserve"
       style="font-size:140.03805542px;font-style:normal;font-weight:normal;line-height:125%;letter-spacing:0px;word-spacing:0px;fill:#ac9393;fill-opacity:1;stroke:none;font-family:Sans"
       id="text3035-4-6-1"
       sodipodi:linespacing="125%"
       transform="matrix(-0.96009964,-0.42343759,0.42343759,-0.96009964,-1204.3175,-357.2106)"><textPath
         xlink:href="#path4345"
         id="textPath4350"
         style="font-size:72px;fill:#ac9393">інструмент  удзелу</textPath></text>
  </g>
</svg>
