<?xml version="1.0" encoding="UTF-8" standalone="no"?>
<!-- Created with Inkscape (http://www.inkscape.org/) -->

<svg
   xmlns:dc="http://purl.org/dc/elements/1.1/"
   xmlns:cc="http://creativecommons.org/ns#"
   xmlns:rdf="http://www.w3.org/1999/02/22-rdf-syntax-ns#"
   xmlns:svg="http://www.w3.org/2000/svg"
   xmlns="http://www.w3.org/2000/svg"
   xmlns:xlink="http://www.w3.org/1999/xlink"
   xmlns:sodipodi="http://sodipodi.sourceforge.net/DTD/sodipodi-0.dtd"
   xmlns:inkscape="http://www.inkscape.org/namespaces/inkscape"
   width="744.09448819"
   height="1052.3622047"
   id="svg2"
   version="1.1"
   inkscape:version="0.48.2 r9819"
   sodipodi:docname="New document 1">
  <defs
     id="defs4">
    <linearGradient
       id="linearGradient3849">
      <stop
         style="stop-color:#e1dede;stop-opacity:1;"
         offset="0"
         id="stop3851" />
      <stop
         id="stop3861"
         offset="0.91666669"
         style="stop-color:#f0e9e9;stop-opacity:0.87450981;" />
      <stop
         id="stop3859"
         offset="0.99421299"
         style="stop-color:#979595;stop-opacity:0.74901961;" />
      <stop
         id="stop3857"
         offset="1"
         style="stop-color:#4d4d4d;stop-opacity:0.49803922;" />
      <stop
         style="stop-color:#4d4d4d;stop-opacity:0;"
         offset="1"
         id="stop3853" />
    </linearGradient>
    <linearGradient
       inkscape:collect="always"
       id="linearGradient3839">
      <stop
         style="stop-color:#ffffff;stop-opacity:1;"
         offset="0"
         id="stop3841" />
      <stop
         style="stop-color:#ffffff;stop-opacity:0;"
         offset="1"
         id="stop3843" />
    </linearGradient>
    <linearGradient
       id="linearGradient3821">
      <stop
         id="stop3833"
         offset="0"
         style="stop-color:#ff8c55;stop-opacity:0.95535713;" />
      <stop
         style="stop-color:#ff8c55;stop-opacity:0;"
         offset="1"
         id="stop3825" />
    </linearGradient>
    <linearGradient
       id="linearGradient3809">
      <stop
         style="stop-color:#dbdee3;stop-opacity:0.625;"
         offset="0"
         id="stop3811" />
      <stop
         style="stop-color:#d5d6d7;stop-opacity:0.24705882;"
         offset="0.69444442"
         id="stop3819" />
      <stop
         style="stop-color:#dbdee3;stop-opacity:0;"
         offset="1"
         id="stop3813" />
    </linearGradient>
    <linearGradient
       id="linearGradient3799">
      <stop
         style="stop-color:#53676c;stop-opacity:1;"
         offset="0"
         id="stop3801" />
      <stop
         id="stop3807"
         offset="0.41666666"
         style="stop-color:#53676c;stop-opacity:0.49803922;" />
      <stop
         style="stop-color:#53676c;stop-opacity:0;"
         offset="1"
         id="stop3803" />
    </linearGradient>
    <filter
       id="filter4307"
       inkscape:label="Drop shadow"
       width="1.5"
       height="1.5"
       x="-.25"
       y="-.25">
      <feGaussianBlur
         id="feGaussianBlur4309"
         in="SourceAlpha"
         stdDeviation="7.9"
         result="blur" />
      <feColorMatrix
         id="feColorMatrix4311"
         result="bluralpha"
         type="matrix"
         values="1 0 0 0 0 0 1 0 0 0 0 0 1 0 0 0 0 0 0.782 0 " />
      <feOffset
         id="feOffset4313"
         in="bluralpha"
         dx="-11.2"
         dy="21.2"
         result="offsetBlur" />
      <feMerge
         id="feMerge4315">
        <feMergeNode
           id="feMergeNode4317"
           in="offsetBlur" />
        <feMergeNode
           id="feMergeNode4319"
           in="SourceGraphic" />
      </feMerge>
    </filter>
    <radialGradient
       inkscape:collect="always"
       xlink:href="#linearGradient3849"
       id="radialGradient4335"
       gradientUnits="userSpaceOnUse"
       cx="-855.71429"
       cy="-580.49493"
       fx="-855.71429"
       fy="-580.49493"
       r="270" />
    <linearGradient
       inkscape:collect="always"
       xlink:href="#linearGradient3799"
       id="linearGradient4337"
       gradientUnits="userSpaceOnUse"
       x1="44.446716"
       y1="-392.15594"
       x2="557.60419"
       y2="-392.15594" />
    <linearGradient
       inkscape:collect="always"
       xlink:href="#linearGradient3821"
       id="linearGradient4339"
       gradientUnits="userSpaceOnUse"
       x1="20.203049"
       y1="-418.41992"
       x2="472.75139"
       y2="-418.41992" />
    <linearGradient
       inkscape:collect="always"
       xlink:href="#linearGradient3839"
       id="linearGradient4341"
       gradientUnits="userSpaceOnUse"
       x1="20.203049"
       y1="-418.41992"
       x2="472.75139"
       y2="-418.41992" />
    <radialGradient
       inkscape:collect="always"
       xlink:href="#linearGradient3809"
       id="radialGradient4343"
       gradientUnits="userSpaceOnUse"
       cx="301.02545"
       cy="-392.15594"
       fx="301.02545"
       fy="-392.15594"
       r="256.57874" />
  </defs>
  <sodipodi:namedview
     id="base"
     pagecolor="#ffffff"
     bordercolor="#666666"
     borderopacity="1.0"
     inkscape:pageopacity="0.0"
     inkscape:pageshadow="2"
     inkscape:zoom="0.24748737"
     inkscape:cx="435.17981"
     inkscape:cy="772.69141"
     inkscape:document-units="px"
     inkscape:current-layer="layer1"
     showgrid="false"
     inkscape:window-width="1366"
     inkscape:window-height="706"
     inkscape:window-x="-8"
     inkscape:window-y="-8"
     inkscape:window-maximized="1" />
  <metadata
     id="metadata7">
    <rdf:RDF>
      <cc:Work
         rdf:about="">
        <dc:format>image/svg+xml</dc:format>
        <dc:type
           rdf:resource="http://purl.org/dc/dcmitype/StillImage" />
        <dc:title></dc:title>
      </cc:Work>
    </rdf:RDF>
  </metadata>
  <g
     inkscape:label="Layer 1"
     inkscape:groupmode="layer"
     id="layer1">
    <path
       sodipodi:type="arc"
       style="fill:#ffffff;fill-opacity:1;stroke:none"
       id="path4345"
       sodipodi:cx="-627.14288"
       sodipodi:cy="-11.923532"
       sodipodi:rx="267.14285"
       sodipodi:ry="267.14285"
       d="m -360.00003,-11.923532 a 267.14285,267.14285 0 1 1 -534.28571,0 267.14285,267.14285 0 1 1 534.28571,0 z"
       transform="matrix(1.026738,0,0,1.026738,1089.3925,514.76038)" />
    <rect
       style="fill:#ff7f2a;fill-opacity:1;stroke:none;stroke-width:13.96572684999999900;stroke-linecap:round;stroke-linejoin:round;stroke-miterlimit:4;stroke-opacity:1;stroke-dasharray:none"
       id="rect2997"
       width="1286.0344"
       height="686.0343"
       x="-168.73149"
       y="195.05931" />
    <text
       xml:space="preserve"
       style="font-size:132.5799408px;font-style:normal;font-weight:normal;line-height:100%;letter-spacing:0px;word-spacing:0px;fill:#ff6600;fill-opacity:1;stroke:none;font-family:Sans"
       x="-107.81911"
       y="372.42801"
       id="text3002"
       sodipodi:linespacing="100%"><tspan
         sodipodi:role="line"
         id="tspan3004"
         x="-107.81911"
         y="372.42801"
         style="line-height:100%;fill:#ff6600">Прымай </tspan><tspan
         sodipodi:role="line"
         x="-107.81911"
         y="505.00797"
         id="tspan3006"
         style="line-height:100%;fill:#ff6600">рашэнні </tspan><tspan
         sodipodi:role="line"
         x="-107.81911"
         y="637.58789"
         id="tspan3008"
         style="line-height:100%;fill:#ff6600">ў сваёй </tspan><tspan
         sodipodi:role="line"
         x="-107.81911"
         y="770.16779"
         id="tspan3010"
         style="line-height:100%;fill:#ff6600"><tspan
   style="fill:#ff6600;fill-opacity:1"
   id="tspan3017">краіне</tspan>!</tspan></text>
    <path
       style="fill:#5599ff;stroke:#000000;stroke-width:1px;stroke-linecap:butt;stroke-linejoin:miter;stroke-opacity:1"
       d="m -168.57142,198.07647 0,685.71429 525.71428,-2.85714 231.42857,-685.71429 z"
       id="path3145"
       inkscape:connector-curvature="0"
       sodipodi:nodetypes="ccccc" />
    <path
       sodipodi:type="arc"
       style="fill:none;stroke:none"
       id="path3012"
       sodipodi:cx="-604.07123"
       sodipodi:cy="-76.988365"
       sodipodi:rx="260.61935"
       sodipodi:ry="260.61935"
       d="m -343.45187,-76.988365 a 260.61935,260.61935 0 1 1 -521.23871,0 260.61935,260.61935 0 1 1 521.23871,0 z"
       transform="matrix(0,1,-1,0,376.68689,1068.6673)" />
    <text
       xml:space="preserve"
       style="font-size:144.3026886px;font-style:normal;font-weight:normal;line-height:125%;letter-spacing:0px;word-spacing:0px;fill:#ffffff;fill-opacity:1;stroke:none;font-family:Sans"
       x="-141.33101"
       y="338.45273"
       id="text3157"
       sodipodi:linespacing="125%"><tspan
         sodipodi:role="line"
         id="tspan3159"
         x="-141.33101"
         y="338.45273">інструмент удзелу</tspan></text>
    <text
       xml:space="preserve"
       style="font-size:317.20465087999997000px;font-style:normal;font-weight:normal;line-height:125%;letter-spacing:0px;word-spacing:0px;fill:#ff7f2a;fill-opacity:1;stroke:none;font-family:Sans"
       x="-178.19626"
       y="877.68506"
       id="text3161"
       sodipodi:linespacing="125%"><tspan
         sodipodi:role="line"
         id="tspan3163"
         x="-178.19626"
         y="877.68506">за</tspan></text>
    <text
       xml:space="preserve"
       style="font-size:182.94514465000000000px;font-style:normal;font-weight:normal;line-height:125%;letter-spacing:0px;word-spacing:0px;fill:#5599ff;fill-opacity:1;stroke:none;font-family:Sans"
       x="437.27338"
       y="659.42236"
       id="text3165"
       sodipodi:linespacing="125%"><tspan
         sodipodi:role="line"
         id="tspan3167"
         x="437.27338"
         y="659.42236">супраць</tspan></text>
    <path
       style="fill:#ffffff;fill-opacity:1;stroke:#008000;stroke-width:0.37480074000000002"
       d="m 102.07758,802.06095 c 0.37373,-0.7374 2.43839,-4.1069 4.58741,-7.48823 2.14903,-3.38133 4.3315,-6.98417 4.84994,-8.00631 0.51847,-1.02224 1.68476,-2.66135 2.59172,-3.64263 0.90706,-0.98135 2.56953,-2.83424 3.69448,-4.11772 1.125,-1.28346 2.66593,-3.00041 3.4243,-3.81542 0.75844,-0.81507 1.95399,-2.17174 2.65694,-3.01493 0.70289,-0.84311 2.749,-3.1961 4.54696,-5.22887 1.79797,-2.03276 4.08474,-4.62062 5.08179,-5.75087 0.99707,-1.13013 2.91662,-3.6366 4.26566,-5.56964 3.45591,-4.95221 7.43175,-10.67726 11.09984,-15.98338 1.73041,-2.50311 4.3194,-6.19209 5.75329,-8.19771 2.54997,-3.5667 2.62398,-3.71182 3.37491,-6.61594 4.91571,-19.01288 13.24772,-38.989 20.60533,-49.40159 l 3.19018,-4.51478 9.51135,-4.70934 c 5.23125,-2.59017 9.79004,-4.83575 10.13071,-4.99023 0.34065,-0.15445 3.46161,-1.69509 6.93546,-3.42366 3.47382,-1.72852 6.44308,-3.16763 6.59834,-3.19798 0.15531,-0.0303 1.60929,-0.72081 3.23116,-1.53436 1.62185,-0.81352 8.60307,-3.34542 15.51383,-5.62638 9.97746,-3.2932 12.86897,-4.39971 14.04102,-5.37334 2.27322,-1.8883 5.12465,-4.36566 5.20311,-4.52048 0.0976,-0.19236 -3.87317,-1.8073 -8.87574,-3.60991 -2.88955,-1.04122 -4.74498,-1.50992 -5.97542,-1.50941 -0.98156,4.2e-4 -3.99076,-0.0469 -6.68715,-0.10509 -2.6964,-0.0582 -7.55413,-0.15458 -10.79497,-0.21424 -16.51623,-0.30401 -24.12476,-0.60022 -26.24549,-1.02164 -5.26672,-1.04666 -10.0362,-3.41746 -11.30068,-5.61749 -0.60943,-1.06025 0.26917,-1.42266 -8.93259,3.68469 -3.79931,2.10877 -10.01967,5.55783 -13.82299,7.66456 -9.08489,5.03233 -16.04048,8.90925 -18.55604,10.34284 -1.11812,0.63716 -2.30323,1.30482 -2.63353,1.48362 -5.64572,3.05548 -9.99109,5.44419 -11.33797,6.23245 -0.92349,0.5405 -2.92405,1.69658 -4.44576,2.56934 l -2.76678,1.5866 -3.35155,-1.24939 c -7.64707,-2.85051 -9.80063,-3.46988 -12.32319,-3.54452 -1.38346,-0.0408 -4.71877,-0.12725 -7.411829,-0.19201 -4.618694,-0.11106 -8.063361,-0.17802 -24.146165,-0.47002 -3.673418,-0.0666 -9.96269,-0.21551 -13.976177,-0.33074 -6.158839,-0.17683 -7.819014,-0.0742 -10.642306,0.65801 -3.944894,1.02315 -6.628209,1.10763 -8.298053,0.26132 -1.711295,-0.86731 -1.762276,-1.39921 -0.393136,-4.10067 1.341292,-2.64651 1.029622,-2.48159 5.68871,-3.01003 8.157577,-0.92525 22.020406,-1.43662 40.000676,-1.47548 4.366193,-0.009 9.01255,-0.024 10.325219,-0.0324 1.31268,-0.008 6.990821,0.0535 12.618111,0.13752 5.62724,0.0841 10.34941,0.0959 10.49372,0.0263 0.24413,-0.11775 1.30376,-0.18599 6.25015,-0.40247 1.65151,-0.0723 2.73191,-0.54697 7.58584,-3.33309 3.11307,-1.78687 6.73491,-3.86383 8.0486,-4.61551 2.15209,-1.23141 11.65722,-6.70399 21.42585,-12.33593 2.0129,-1.16052 5.12283,-2.94145 6.91094,-3.95762 1.78808,-1.01622 3.27764,-1.89999 3.31008,-1.96401 0.0324,-0.0641 1.55083,-0.9551 3.37419,-1.98024 2.84365,-1.59875 3.5076,-1.82378 4.66758,-1.58195 0.74378,0.15501 2.10671,0.37773 3.02866,0.49485 1.87798,0.23858 10.31711,1.53382 24.27989,3.72646 5.15086,0.80889 12.75952,1.99032 16.90815,2.62535 17.70165,2.7097 23.4108,3.61127 24.32368,3.8413 0.53345,0.13445 3.15001,-0.36718 5.81892,-1.11557 l 4.84953,-1.3598 0.89928,-1.77435 0.89924,-1.77431 -7.44688,-22.6973 c -4.09578,-12.48348 -7.60919,-22.77951 -7.80761,-22.88008 -0.19841,-0.10059 -1.55847,-2.03882 -3.02239,-4.30721 -1.46389,-2.26843 -2.81123,-4.20025 -2.99409,-4.29293 -0.80541,-0.40819 -0.30001,-3.57452 1.39069,-8.71191 0.2614,-0.79434 0.37717,-1.49393 0.25727,-1.55469 -0.26868,-0.13619 -4.08873,-6.12903 -5.21855,-8.18684 -0.45435,-0.82751 -1.96454,-3.30677 -3.35605,-5.50944 -1.39148,-2.20264 -2.61329,-4.19249 -2.71512,-4.42184 -0.17364,-0.3912 -2.60716,-4.3783 -4.52473,-7.41341 -0.47048,-0.74468 -1.29727,-2.10573 -1.83731,-3.02455 -0.54004,-0.91886 -1.18262,-1.97868 -1.42796,-2.35518 -2.51846,-3.86513 -3.06594,-5.09311 -3.60465,-8.08477 -0.31868,-1.76973 -1.0107,-5.55671 -1.53777,-8.41556 -0.95726,-5.19178 -0.95259,-5.86839 0.0817,-11.84152 0.17658,-1.01956 0.41226,-2.17254 0.52379,-2.56214 0.11149,-0.38968 0.58383,-2.90056 1.04952,-5.57981 1.65932,-9.5463 3.18753,-17.93661 3.46484,-19.02326 0.10058,-0.39373 0.31464,-1.66796 0.47598,-2.83158 0.16124,-1.16362 0.35541,-2.08418 0.43144,-2.04564 0.076,0.0385 0.20602,-0.56466 0.2889,-1.34044 0.0828,-0.7758 0.48905,-3.2017 0.90222,-5.391 0.41338,-2.1893 0.89058,-4.86898 1.06047,-5.95491 0.29599,-1.89113 0.3815,-2.05664 2.03205,-3.92629 0.94776,-1.07352 1.92835,-2.35062 2.17905,-2.83791 0.3968,-0.77184 0.53345,-0.81196 1.057,-0.3119 0.33059,0.31579 0.80683,1.13924 1.05829,1.82982 0.69158,1.89944 1.01497,8.8867 0.67077,14.49189 -0.1689,2.74934 -0.29528,5.32584 -0.28096,5.72546 0.0143,0.39969 -0.12769,1.9335 -0.31564,3.40849 -0.18788,1.47501 -0.3695,3.20303 -0.40347,3.83999 -0.12923,2.42093 -0.55181,6.14603 -0.73917,6.51572 -0.10737,0.21186 -0.19005,0.95886 -0.18368,1.66001 0.006,0.70112 -0.0901,1.75849 -0.21439,2.3497 -0.12427,0.59124 -0.37253,2.24962 -0.55204,3.68528 -0.17921,1.4357 -1.08028,7.75905 -2.00239,14.0519 l -1.6767,11.44155 1.5596,2.30177 c 1.56298,2.30675 4.09596,5.91481 9.06674,12.91489 1.46337,2.06078 2.95205,4.21509 3.30812,4.7873 0.35608,0.57221 2.36516,6.22487 4.46463,12.56143 l 3.81723,11.52103 2.30963,-0.7366 c 2.49947,-0.7972 2.39382,-0.84906 3.32425,1.63152 0.18669,0.49776 0.86106,1.98811 1.49856,3.3119 0.63754,1.32374 1.60715,3.45915 2.1547,4.74528 0.54754,1.28616 1.5642,3.50474 2.25923,4.93019 1.95902,4.01784 2.18738,4.74826 2.76235,8.8349 0.29562,2.10152 0.65684,4.64175 0.80261,5.64501 0.14576,1.0032 0.43927,3.22626 0.65225,4.94016 0.21293,1.71388 0.4342,3.22921 0.49162,3.36734 0.0575,0.13821 0.23717,1.389 0.39937,2.77963 0.46184,3.96047 1.08119,7.16577 1.74108,9.0105 l 0.60627,1.69502 0.5383,-1.51142 c 0.29604,-0.83128 1.12275,-3.17785 1.83708,-5.21458 2.08303,-5.93925 3.3684,-8.79693 5.01049,-11.13963 2.93533,-4.1877 3.80331,-4.88238 8.40669,-6.7284 5.76957,-2.31362 10.41325,-4.35102 10.18299,-4.46771 -0.1049,-0.0532 -0.60763,-0.0536 -1.11726,-10e-4 -2.63129,0.27126 -5.70455,-0.51742 -9.54857,-2.45041 -4.39222,-2.20878 -6.36501,-3.93894 -9.47996,-8.31479 -1.69081,-2.3752 -1.93465,-3.00687 -2.7869,-7.21984 -0.51368,-2.53931 -1.08253,-5.6161 -1.26401,-6.83734 -0.32926,-2.21529 -0.54225,-8.7907 -0.31758,-9.80432 0.0652,-0.29408 0.2467,-1.54028 0.40326,-2.76933 0.26055,-2.04402 0.62336,-2.90848 4.25375,-10.1354 3.86552,-7.69498 4.02908,-7.96526 6.28896,-10.36807 1.27602,-1.35696 2.452,-2.72765 2.61333,-3.04599 0.24547,-0.48432 2.74509,-2.90118 5.05513,-4.88773 0.31903,-0.2744 0.63538,-0.56015 0.70284,-0.635 1.2126,-1.34478 1.33861,-1.37462 17.99734,-4.26391 3.60932,-0.62603 7.10721,-1.3056 7.77307,-1.51017 l 1.21063,-0.3719 0.35444,-2.43638 c 0.19448,-1.34004 0.29422,-2.62022 0.22069,-2.84498 -0.13227,-0.40419 -1.4092,-2.36559 -2.97747,-4.57351 -1.3598,-1.91442 -8.23909,-12.58097 -10.65706,-16.524 -1.25363,-2.04433 -2.62577,-4.26563 -3.04919,-4.93612 -1.16411,-1.8435 -2.86948,-4.78526 -3.10026,-5.34808 -0.11271,-0.27475 -0.72882,-1.34742 -1.36912,-2.38365 -0.64033,-1.03624 -1.25522,-2.14892 -1.36637,-2.47254 -0.11112,-0.32363 -0.93619,-2.04009 -1.83349,-3.81433 -1.85695,-3.67181 -2.71507,-6.50025 -3.06618,-10.10567 -0.13398,-1.37637 -0.47505,-4.67162 -0.75788,-7.32276 -0.48147,-4.51329 -0.71132,-6.7236 -1.45829,-14.02163 -0.16482,-1.61002 -0.37881,-3.60148 -0.4755,-4.42548 -0.0967,-0.82397 -0.0584,-1.72994 0.0852,-2.01325 0.14356,-0.28333 0.57627,-1.83868 0.96151,-3.45633 1.00521,-4.22098 0.97777,-4.18837 2.76221,-3.28399 1.69016,0.8566 1.28144,-0.4612 3.35592,10.82019 1.91112,10.39302 2.74723,18.77611 2.01648,20.21795 -0.42917,0.84683 -0.0724,3.14815 0.80615,5.20044 2.03457,4.75255 3.8272,8.49025 5.94127,12.38793 3.46752,6.39295 11.87695,20.49473 15.24496,25.56429 0.57628,0.86748 2.2933,5.34563 3.81562,9.95148 l 2.76778,8.37417 2.01619,0.65496 c 6.5834,2.13866 8.38527,2.87974 14.41102,5.92694 6.00474,3.03657 8.88284,4.77719 14.2629,8.62609 l 1.7456,1.24878 11.86363,-3.8492 c 7.00727,-2.27356 12.31968,-3.78828 12.97766,-3.70036 0.6127,0.0819 2.00843,0.2324 3.10156,0.33441 1.09316,0.10204 2.80527,0.27011 3.80467,0.37337 3.33378,0.34454 13.04961,-0.30765 18.12848,-1.21693 2.76057,-0.49423 7.18639,-1.64931 9.83514,-2.56686 4.4901,-1.55547 5.33244,-2.00994 12.45333,-6.7186 4.2006,-2.77769 7.8704,-5.19993 8.15505,-5.38274 0.28464,-0.18284 1.98383,-1.29311 3.77591,-2.46728 3.16835,-2.07592 3.33248,-2.13409 5.94435,-2.10714 1.47727,0.0152 3.17106,0.0321 3.76396,0.0375 1.03953,0.009 1.0553,0.0304 0.44172,0.58578 -2.42335,2.19349 -15.62706,12.09183 -20.75305,15.55784 -2.30428,1.55805 -4.49109,3.03684 -4.85961,3.28623 -4.48481,3.03527 -11.38629,5.92579 -12.63617,5.29234 -0.59835,-0.30325 -1.62332,-0.29425 -6.56289,0.0577 -1.92308,0.13705 -5.80042,0.3945 -8.61635,0.57217 -4.81271,0.30368 -11.75065,0.76753 -13.13276,0.87801 -0.34092,0.0273 -1.62948,0.10538 -2.86346,0.17363 -1.99313,0.1102 -19.20115,4.99625 -19.43962,5.51971 -0.0915,0.20031 1.01085,2.47741 3.59563,7.42843 0.69666,1.33444 1.72726,3.38557 2.29023,4.55812 0.56297,1.17255 2.0451,4.18794 3.29358,6.70082 l 2.26992,4.56884 -0.19993,3.19345 c -0.65236,10.42086 -3.43209,18.24108 -9.47125,26.64565 -1.14863,1.59855 -2.36388,3.30212 -2.70055,3.78573 -0.33667,0.48357 -1.23452,1.5451 -1.99529,2.35896 -0.76082,0.81378 -1.57189,1.72241 -1.80244,2.01911 -1.81121,2.33103 -4.67205,3.84984 -11.86306,6.29819 -4.88199,1.66219 -9.8949,2.64989 -13.33575,2.62753 -2.51807,-0.0163 -2.85952,-0.11174 -5.65472,-1.57974 -1.6361,-0.85947 -4.30564,-2.61033 -5.93213,-3.89119 -1.62651,-1.28084 -3.05354,-2.29733 -3.1712,-2.25882 -0.30065,0.0984 -0.0852,1.69743 0.48789,3.62245 0.72354,2.42999 1.67691,8.80187 1.71307,11.44881 0.0174,1.27682 -0.16734,2.75587 -0.4105,3.28686 -0.69092,1.50859 -5.81097,9.95917 -8.80537,14.53312 -1.49107,2.2776 -2.68322,4.22599 -2.64921,4.32979 0.034,0.10375 1.52266,-0.55297 3.30819,-1.45943 1.78554,-0.9065 3.54892,-1.7625 3.91862,-1.9022 0.36967,-0.13976 1.69425,-0.80663 2.9434,-1.48195 1.24919,-0.67531 2.80595,-1.49087 3.45943,-1.81231 1.65064,-0.81195 9.56977,-4.8502 10.72676,-5.46994 0.52295,-0.28014 2.36879,-1.21806 4.10194,-2.08425 1.7331,-0.86622 4.13812,-2.09538 5.34444,-2.73154 2.07417,-1.09388 3.23202,-1.35896 9.87607,-2.26106 1.5222,-0.20668 3.69501,-0.5189 4.82844,-0.69388 2.34055,-0.36133 2.41857,-0.30875 4.157,2.80079 1.01242,1.81086 1.32052,2.13936 1.8273,1.94829 0.3353,-0.12642 2.82344,-1.07046 5.5292,-2.09796 2.70583,-1.02741 5.65557,-2.12988 6.55504,-2.44993 0.89953,-0.31999 3.71921,-1.41201 6.26606,-2.42669 3.02391,-1.20479 5.11837,-1.80866 6.0365,-1.74046 2.55739,0.18994 9.39438,0.9127 9.5948,1.01428 0.10835,0.0549 1.20728,0.14114 2.44209,0.19151 4.07449,0.16638 10.53112,-1.38418 15.19317,-3.64866 1.64292,-0.79798 6.19636,-4.17591 7.08323,-5.25466 0.67749,-0.82409 2.91292,-3.13152 5.39244,-5.56626 0.73237,-0.71917 2.19208,-2.20964 3.24371,-3.3122 1.05164,-1.10256 2.55685,-2.65918 3.34495,-3.45915 0.78806,-0.79998 2.29461,-2.35592 3.34785,-3.45766 1.05328,-1.10174 2.38429,-2.47897 2.95793,-3.06056 2.82434,-2.86363 8.95721,-9.19299 12.49621,-12.89666 3.8118,-3.98912 4.04584,-4.17052 6.40313,-4.96267 l 2.44669,-0.82222 1.186,1.43915 c 1.11886,1.35763 1.1476,1.48897 0.50793,2.31966 -1.32483,1.72045 -1.58586,2.03527 -3.14472,3.79357 -0.86705,0.97803 -1.7546,2.0448 -1.97233,2.3706 -0.21769,0.32579 -1.01862,1.25804 -1.77981,2.07164 -0.76119,0.81361 -1.67406,1.86754 -2.02863,2.34206 -0.35459,0.47448 -1.28474,1.60892 -2.06692,2.52091 -0.78226,0.91197 -2.3697,2.78373 -3.52767,4.15951 -1.15798,1.37574 -2.93446,3.42705 -3.94772,4.55846 -1.01323,1.13141 -2.05879,2.38575 -2.32342,2.7874 -0.26466,0.40166 -1.11851,1.40928 -1.89755,2.23913 -0.77901,0.82988 -1.72363,1.95691 -2.09909,2.50456 -1.28528,1.87439 -4.13604,4.54971 -8.11273,7.61329 -2.18758,1.68534 -5.65487,4.35517 -7.70507,5.93294 -2.05015,1.57782 -4.41756,3.44564 -5.26094,4.15073 -1.30353,1.08982 -2.02105,1.34687 -4.78636,1.71475 -1.78915,0.23799 -3.36981,0.48728 -3.51264,0.55397 -0.14285,0.0666 -1.77248,0.32144 -3.62147,0.56617 -1.849,0.24472 -4.63342,0.634 -6.18756,0.86503 -1.55419,0.23104 -3.87543,0.56299 -5.1583,0.73768 -1.28287,0.17468 -2.64177,0.39157 -3.01973,0.48196 -0.67725,0.16196 -1.40525,0.27163 -8.59532,1.29496 -1.99771,0.28431 -4.98734,0.72654 -6.64367,0.98268 -1.65634,0.25618 -4.25284,0.62667 -5.77,0.82339 -4.30257,0.55784 -4.55356,0.68602 -6.9498,3.55014 l -2.16313,2.58546 -3.18503,0.76472 c -1.75174,0.42062 -5.75269,1.38685 -8.89098,2.14717 -3.13827,0.76036 -8.0344,1.92814 -10.88023,2.59508 -2.84586,0.667 -6.11375,1.48215 -7.26199,1.81152 -1.14823,0.32936 -4.51129,1.1563 -7.47345,1.83762 -7.41681,1.70593 -9.25738,2.30456 -12.25986,3.98756 -1.43017,0.80167 -3.81139,2.09272 -5.29157,2.86904 -4.41123,2.31354 -4.25039,2.08432 -3.43564,4.89729 1.98657,6.85854 3.31712,8.67377 13.80862,18.83868 1.02379,0.99192 2.51272,2.45465 3.30877,3.25047 1.37638,1.376 9.824,9.65985 13.50791,13.24598 0.94915,0.92401 2.37683,2.33162 3.17258,3.12804 0.79575,0.79638 3.06293,3.0119 5.03817,4.92332 4.56479,4.41735 6.69902,6.51356 8.33865,8.19009 0.71821,0.73434 2.4389,2.44386 3.82385,3.79891 l 2.51799,2.46374 0.18394,3.81769 c 0.10115,2.09976 0.19,4.7129 0.19732,5.80701 0.053,7.85609 1.53613,21.06241 3.46924,30.89076 0.57921,2.94482 1.25209,6.46906 1.4953,7.83172 0.24326,1.36268 1.51503,6.16014 2.82624,10.66109 2.70129,9.27268 1.19564,6.61605 12.65581,22.32982 2.89485,3.96934 8.83894,12.13165 13.20899,18.13847 11.58431,15.92332 17.56282,24.10499 19.36819,26.50621 l 1.59407,2.11992 -1.95231,3.86759 c -1.07367,2.12732 -2.00537,3.84069 -2.07024,3.80782 -0.14552,-0.0738 -9.05414,-11.78622 -16.6861,-21.93787 -6.93197,-9.22051 -13.61677,-18.02898 -22.05601,-29.06241 l -6.38573,-8.34848 -3.06282,-1.5635 -3.06283,-1.56349 -0.25575,-2.00589 c -0.14066,-1.10315 -0.37531,-2.78007 -0.52138,-3.72642 -0.26008,-1.68431 -0.90682,-6.05847 -1.89404,-12.80949 -0.27161,-1.85731 -0.59986,-4.0755 -0.72937,-4.92927 -0.3421,-2.25454 -1.29424,-8.78811 -1.78521,-12.25004 -0.23328,-1.64474 -0.61195,-4.26878 -0.8416,-5.8313 -1.35206,-9.2004 -1.62862,-11.09102 -2.14261,-14.64707 -0.54076,-3.74083 -0.94734,-6.46601 -1.67448,-11.22323 -0.18068,-1.18196 -0.37703,-2.51427 -0.43639,-2.96076 -0.10167,-0.76493 -0.16639,-0.80344 -1.12065,-0.66706 -1.50977,0.21572 -7.12178,-2.7069 -10.27264,-5.34979 -4.43035,-3.71606 -6.43766,-5.75063 -9.21421,-9.33932 -1.51523,-1.95847 -3.41058,-4.37962 -4.21183,-5.38032 -1.39064,-1.73687 -3.31466,-4.23244 -10.32027,-13.38616 -1.72385,-2.25239 -4.53333,-5.88594 -6.2433,-8.07452 l -3.10907,-3.9792 -3.05448,-1.54806 c -1.67997,-0.85143 -3.09737,-1.46341 -3.14976,-1.36003 -0.0844,0.16652 -0.5711,6.45349 -0.86847,11.21835 -0.0593,0.95121 0.28542,2.99937 0.76613,4.55147 0.48078,1.5521 1.76302,6.12723 2.84947,10.16697 1.08639,4.03977 2.48162,9.02899 3.10042,11.08718 0.61884,2.05823 2.08009,7.25936 3.24729,11.55811 1.16712,4.29875 2.94329,10.59089 3.94698,13.98249 1.2395,4.18845 1.75288,6.61089 1.6003,7.55147 -0.12323,0.76167 -0.44603,2.61074 -0.71673,4.10911 -0.27071,1.49838 -0.63499,3.63317 -0.8097,4.74411 -1.24594,7.92632 -1.20215,7.81926 -6.76135,16.50603 -2.02613,3.16604 -4.48895,7.13264 -5.47297,8.81468 -0.98396,1.68197 -2.95843,4.87418 -4.38771,7.0938 -1.42928,2.21962 -3.36601,5.35193 -4.3039,6.96083 -0.93787,1.60891 -2.95204,4.87025 -4.47599,7.24739 -5.50196,8.58271 -8.77245,14.40391 -9.43965,16.80191 -0.15949,0.57333 -0.66742,2.54622 -1.1286,4.38416 -0.46121,1.83793 -1.20345,4.7626 -1.6494,6.49919 -0.44594,1.73658 -1.0533,4.1944 -1.3496,5.46164 -0.29636,1.26731 -0.67968,2.67879 -0.85179,3.13676 -0.17211,0.45795 -0.57499,1.94876 -0.89523,3.31295 -0.32023,1.36419 -0.7347,2.91189 -0.92101,3.43934 -0.18628,0.52747 -0.61475,2.18366 -0.95216,3.68063 -0.33732,1.49689 -1.00604,4.21757 -1.48609,6.04606 -0.47993,1.82834 -1.15549,4.42996 -1.50125,5.7812 -0.3457,1.35129 -0.74451,2.84415 -0.88623,3.31763 -0.14184,0.47331 -0.58971,2.20891 -0.99555,3.85685 -0.40583,1.64794 -1.15115,4.57094 -1.65635,6.49566 -0.50513,1.92464 -1.19422,4.787 -1.53124,6.36074 -0.50473,2.35647 -1.17752,4.02685 -3.81304,9.46671 -3.09644,6.39115 -3.22031,6.59519 -3.81927,6.29163 -1.51763,-0.76916 -2.44807,-1.84914 -3.18674,-3.69887 -1.40754,-3.52475 -1.12878,-5.71086 2.19605,-17.22269 0.60433,-2.09253 1.5574,-5.40005 2.11789,-7.35011 0.56044,-1.95008 1.50332,-5.21915 2.09514,-7.26455 0.59186,-2.04537 1.48627,-5.20604 1.98758,-7.02353 1.47905,-5.36218 2.44655,-8.71631 3.1432,-10.89658 0.35982,-1.12607 0.92167,-3.07162 1.24855,-4.32337 0.3269,-1.25184 1.11623,-4.0634 1.75409,-6.2479 0.90924,-3.11415 1.18045,-4.8745 1.25573,-8.15164 l 0.0961,-4.17964 2.51944,-4.01055 c 2.38785,-3.801 5.1171,-8.08482 13.71722,-21.53031 2.05412,-3.21137 5.57625,-8.74147 7.82712,-12.28924 2.25085,-3.54778 5.69584,-8.93872 7.65548,-11.97982 1.95968,-3.04119 4.21381,-6.60255 5.00918,-7.91416 l 1.44612,-2.38475 -0.59854,-3.20666 c -0.3292,-1.76363 -0.68358,-3.30582 -0.78747,-3.42708 -0.10397,-0.12108 -0.69423,-2.61758 -1.31189,-5.54738 -1.10871,-5.25976 -1.90468,-8.89773 -4.39125,-20.06957 -3.4318,-15.41886 -3.42002,-15.33839 -3.71711,-25.4539 -0.15636,-5.32332 -0.20625,-9.83265 -0.1109,-10.02077 0.0954,-0.18814 -1.34069,-4.83569 -3.19116,-10.32791 l -3.3645,-9.98588 -2.10337,-1.07857 -2.10336,-1.07858 -1.70666,3.11994 -1.70668,3.11993 0.55506,1.54994 c 0.30529,0.85249 0.7154,2.94767 0.91136,4.656 0.31329,2.73114 0.25421,3.30736 -0.48924,4.77427 -0.46504,0.91756 -0.97785,1.6654 -1.13961,1.66182 -0.16172,-0.004 -1.88282,0.54289 -3.82462,1.21431 -3.3782,1.1681 -3.56723,1.2879 -4.3804,2.77555 l -0.84987,1.55476 2.11838,1.29653 c 4.01744,2.45881 5.72108,5.10708 4.91473,7.63995 -0.4761,1.49551 -1.27895,2.10538 -7.36266,5.59301 l -4.41569,2.53137 2.11838,1.75034 c 2.2489,1.85817 7.22395,6.52958 7.8123,7.33544 0.19308,0.26446 0.79784,1.00745 1.34388,1.65111 6.68083,7.87468 10.39477,17.74153 10.37192,27.55447 -0.006,2.73415 -0.26942,6.08824 -0.55813,7.11671 -0.10258,0.36551 -0.30442,1.42301 -0.44838,2.34995 -0.14419,0.92704 -0.40766,2.14679 -0.58613,2.71062 -0.17837,0.56378 -0.74057,2.3828 -1.2493,4.04215 -1.54895,5.05231 -9.82603,20.85193 -11.44018,21.83737 -0.16612,0.10145 -0.56189,0.5575 -0.87949,1.01336 -0.31759,0.45587 -1.21394,1.48547 -1.99178,2.28791 -0.77792,0.80251 -1.6562,1.78466 -1.95192,2.18267 -0.29567,0.39803 -1.03045,1.18754 -1.63291,1.75453 -0.60245,0.56699 -1.33684,1.36253 -1.63207,1.76796 -0.48959,0.67229 -2.14371,2.50743 -5.50848,6.11142 -0.69103,0.74016 -1.74987,1.94806 -2.35303,2.68432 -0.60315,0.73616 -1.86602,1.7162 -2.80644,2.17772 -0.94033,0.46156 -3.05283,1.48232 -4.69447,2.26852 -1.64157,0.7861 -6.32584,3.0369 -10.4094,5.00156 -4.08357,1.96467 -9.10819,4.38055 -11.16585,5.36856 -2.05771,0.9881 -5.04871,2.43999 -6.64677,3.22652 -5.22176,2.57022 -6.51996,3.1252 -7.33403,3.13572 -0.44139,0.006 -3.18992,0.005 -6.10791,-0.002 l -5.30543,-0.0127 -3.56639,-2.04036 c -7.67156,-4.38886 -11.61377,-8.75078 -13.95718,-15.44338 -1.07068,-3.05749 -1.64829,-6.35511 -1.64516,-9.3918 0.002,-1.55966 -0.8786,-9.36543 -3.15846,-28.00936 -0.3442,-2.81417 -0.50122,-6.06086 -0.34914,-7.21464 0.15208,-1.15387 0.33492,-2.06832 0.40603,-2.03226 0.0712,0.0361 0.23934,-0.81549 0.37364,-1.8923 0.23708,-1.90087 1.10301,-7.02364 1.31829,-7.79863 0.0587,-0.21108 0.27619,-1.43898 0.48349,-2.72869 0.2072,-1.28972 0.5471,-3.40507 0.75543,-4.70088 0.35898,-2.23425 0.68984,-2.95706 6.40825,-13.99963 4.74519,-9.16323 6.37391,-12.06049 7.64553,-13.60025 0.88864,-1.07611 1.97909,-2.48616 2.42307,-3.13336 2.58764,-3.77194 10.20061,-9.6724 16.32225,-12.65058 6.77275,-3.295 14.19125,-4.55186 21.5309,-3.64783 3.05865,0.37671 10.90362,2.35088 12.44374,3.13144 0.45725,0.23174 0.87285,0.33946 0.92361,0.23934 0.0507,-0.10012 -0.0449,-2.42351 -0.21267,-5.16307 -0.1677,-2.73957 -0.32393,-5.77217 -0.34721,-6.7391 l -0.0423,-1.75812 1.48338,-1.17909 1.48337,-1.17909 3.88753,1.97026 c 3.88475,1.96885 3.88739,1.97017 4.03285,1.1518 0.17959,-1.01139 1.17355,-7.89835 1.72958,-11.98272 l 0.41309,-3.035 2.82378,-1.27194 c 5.50856,-2.4812 6.98159,-3.71382 7.38605,-6.18065 0.22045,-1.34456 0.0466,-1.43429 -4.52191,-2.33291 -2.51025,-0.49371 -2.56695,-0.4825 -10.48845,2.07684 -5.18588,1.67549 -8.99619,3.15702 -10.92147,4.24657 -1.62627,0.92036 -5.67575,3.23938 -8.99883,5.15334 -3.32306,1.91403 -8.6043,4.9469 -11.73606,6.7398 -3.13176,1.7929 -8.41233,4.8261 -11.73463,6.7405 -14.17766,8.16965 -17.25067,9.89231 -17.45858,9.78694 -0.12089,-0.0613 -0.76256,0.0437 -1.42589,0.23318 -0.6633,0.18952 -2.9056,0.67833 -4.98283,1.08613 -2.61138,0.51276 -3.81386,0.92364 -3.89689,1.33145 -0.066,0.3245 -1.05034,2.97324 -2.18735,5.88607 -2.84347,7.28461 -6.97128,17.81783 -10.30591,26.29805 -4.42522,11.2537 -7.76604,19.83381 -10.44849,26.83479 -2.45433,6.40547 -2.50862,6.51383 -4.35839,8.69467 -1.03017,1.21459 -2.90636,3.46894 -4.16924,5.00953 -1.26292,1.54069 -3.13154,3.77646 -4.15253,4.96845 -1.02091,1.19193 -2.0977,2.51965 -2.39278,2.95039 -0.29514,0.43081 -1.22416,1.59452 -2.06461,2.58609 -0.84044,0.99146 -2.55613,3.06593 -3.8126,4.60978 -1.2565,1.54394 -3.11654,3.81285 -4.1334,5.04204 -2.88086,3.4823 -6.02031,7.30396 -8.39387,10.2179 -1.1944,1.46634 -2.98202,3.60221 -3.97248,4.74634 -0.99044,1.14415 -2.12172,2.55301 -2.51399,3.13078 -0.39227,0.57778 -1.40893,1.83811 -2.25927,2.80068 -0.8503,0.96258 -1.807,2.13402 -2.12595,2.60333 -1.39186,2.04755 -3.5572,3.98123 -5.90762,5.27559 l -2.53071,1.39369 -2.3145,-1.17302 -2.3145,-1.17303 0.67946,-1.34065 z M 269.43706,613.30086 c 0.16646,-0.48899 0.0236,-0.92547 -0.39978,-1.22145 -0.5699,-0.39847 -0.56321,-0.64895 0.0496,-1.85816 0.68328,-1.3482 0.67427,-1.41492 -0.25532,-1.88605 -0.95283,-0.48291 -0.97105,-0.47118 -1.62695,1.05876 -0.60743,1.41686 -0.59451,1.59262 0.15364,2.08667 0.57711,0.38117 0.72618,0.71856 0.50779,1.14946 -0.2254,0.44475 -0.0895,0.72129 0.50146,1.02082 0.66018,0.33459 0.85866,0.26962 1.06952,-0.35005 z m 35.33769,18.03635 c 0.19835,-0.39135 0.58051,-0.51645 1.06952,-0.35005 1.11011,0.37778 1.83847,-0.97917 0.80633,-1.50227 -0.53527,-0.27129 -0.83579,-0.19987 -1.06535,0.25304 -0.2345,0.4627 -0.53007,0.52433 -1.10841,0.23123 -0.63095,-0.31978 -0.86863,-0.24196 -1.1884,0.38897 -0.31975,0.63092 -0.24197,0.86859 0.38899,1.18836 0.56886,0.28831 0.87464,0.23001 1.09729,-0.20929 z"
       id="path2998-39-87"
       inkscape:connector-curvature="0" />
  </g>
</svg>
